<svg width="379" height="140" viewBox="0 0 379 140" fill="none" xmlns="http://www.w3.org/2000/svg">
<path d="M117.16 127.71L95.4201 136.6C93.4001 137.425 91.1001 137.1 89.3901 135.75L70.9401 121.215C69.8501 120.36 68.4101 119.765 67.1301 120.285L48.0701 127.985C46.0651 128.8 43.7751 128.475 42.0751 127.145L26.8301 115.235C25.1251 113.9 24.2651 111.765 24.5651 109.62L27.4251 89.265C27.6151 87.89 26.6951 86.64 25.6001 85.79L7.03006 71.405C5.30506 70.07 4.43006 67.915 4.75006 65.76L8.11006 42.51C8.42506 40.35 9.87506 38.515 11.9051 37.69L33.8401 28.825C35.8751 28.005 38.1951 28.32 39.9251 29.655L56.4451 42.45C57.3451 43.15 58.6001 43.06 59.6551 42.635C72.2601 37.535 80.8501 34.555 81.3801 33.855C81.7151 33.42 81.9501 32.95 81.9501 32.945C82.0251 32.81 82.1151 32.62 82.2551 32.16C82.4151 31.65 82.4551 31.37 82.4751 31.235C82.5551 30.825 82.5801 30.65 82.6051 30.475C82.6301 30.305 82.6551 30.135 82.7351 29.74C82.7751 29.53 82.8351 29.245 82.8951 28.85C82.9351 28.58 82.9601 28.36 82.9751 28.195C83.0901 27.1 83.1051 26.26 83.1251 26.04C83.4151 21.585 84.8401 13.27 85.8051 6.08001C85.9801 4.74001 87.2151 3.80501 88.5501 3.98501C89.8901 4.16001 90.8251 5.39501 90.6451 6.72501L87.3051 31.58C87.1501 32.735 87.6151 33.895 88.5301 34.615L96.9001 41.24L105.355 47.765C106.27 48.475 107.51 48.65 108.59 48.22L131.905 38.965C133.155 38.47 134.575 39.08 135.075 40.335C135.575 41.59 134.96 43.005 133.71 43.505C126.97 46.18 119.245 49.575 114.99 50.935C114.78 51.005 113.97 51.225 112.935 51.6C112.78 51.655 112.57 51.735 112.32 51.835C111.945 51.985 111.685 52.11 111.495 52.205C111.13 52.38 110.97 52.445 110.815 52.51C110.65 52.575 110.48 52.645 110.11 52.82C109.98 52.87 109.725 52.98 109.265 53.26C108.85 53.505 108.69 53.64 108.575 53.745C108.575 53.745 108.17 54.085 107.825 54.515C107.275 55.215 106.465 64.265 104.565 77.725C104.405 78.85 104.625 80.09 105.525 80.795L121.94 93.725C123.655 95.08 124.52 97.25 124.22 99.425L120.925 122.85C120.62 125.025 119.19 126.875 117.17 127.7L117.16 127.71Z" fill="#4A2F0B"/>
<path d="M34.1 34.745C35.735 34.085 37.595 34.345 38.98 35.43L53.9151 47.1C55.3051 48.185 56.0051 49.925 55.7601 51.67L53.1201 70.44C52.8751 72.185 51.7201 73.665 50.085 74.325L32.51 81.425C30.875 82.085 29.015 81.825 27.63 80.74L12.695 69.07C11.305 67.985 10.605 66.245 10.85 64.5L13.49 45.73C13.735 43.985 14.89 42.505 16.525 41.845L34.1 34.745Z" fill="#FBB800"/>
<path d="M96.575 83.8851C98.21 83.2251 100.07 83.4851 101.455 84.5701L116.39 96.2401C117.78 97.3251 118.48 99.0651 118.235 100.81L115.595 119.58C115.35 121.325 114.195 122.805 112.56 123.465L94.985 130.565C93.35 131.225 91.49 130.965 90.105 129.88L75.1699 118.21C73.7799 117.125 73.0799 115.385 73.3249 113.64L75.9649 94.8701C76.2099 93.1251 77.365 91.6451 79 90.9851L96.575 83.8851Z" fill="#FBB800"/>
<path d="M159.415 98.76C158.401 98.76 157.641 98.608 157.135 98.304C156.679 98.0507 156.375 97.6707 156.223 97.164C156.071 96.6067 155.995 95.9733 155.995 95.264V49.132C155.995 47.8147 156.248 46.928 156.755 46.472C157.312 45.9653 158.275 45.712 159.643 45.712H190.195C190.904 45.712 191.487 45.788 191.943 45.94C192.449 46.092 192.829 46.4213 193.083 46.928C193.336 47.4347 193.463 48.1947 193.463 49.208C193.463 50.2213 193.311 50.9813 193.007 51.488C192.753 51.944 192.373 52.248 191.867 52.4C191.36 52.552 190.752 52.628 190.043 52.628H162.835V68.36H181.759C182.468 68.36 183.051 68.436 183.507 68.588C184.013 68.74 184.393 69.044 184.647 69.5C184.9 69.956 185.027 70.6653 185.027 71.628C185.027 72.54 184.9 73.224 184.647 73.68C184.393 74.136 184.013 74.44 183.507 74.592C183.051 74.6933 182.443 74.744 181.683 74.744H162.835V95.34C162.835 96.0493 162.759 96.6573 162.607 97.164C162.455 97.6707 162.125 98.0507 161.619 98.304C161.163 98.608 160.428 98.76 159.415 98.76ZM205.192 98.76C204.229 98.76 203.494 98.608 202.988 98.304C202.532 98.0507 202.228 97.6707 202.076 97.164C201.924 96.6573 201.848 96.0493 201.848 95.34V65.32C201.848 64.6107 201.924 64.0027 202.076 63.496C202.228 62.9893 202.532 62.6093 202.988 62.356C203.494 62.1027 204.254 61.976 205.268 61.976C206.23 61.976 206.94 62.128 207.396 62.432C207.852 62.6853 208.156 63.0653 208.308 63.572C208.46 64.0787 208.536 64.712 208.536 65.472V95.416C208.536 96.1253 208.46 96.7333 208.308 97.24C208.156 97.7467 207.826 98.1267 207.32 98.38C206.864 98.6333 206.154 98.76 205.192 98.76ZM205.192 52.856C204.077 52.856 203.241 52.704 202.684 52.4C202.126 52.0453 201.746 51.564 201.544 50.956C201.392 50.348 201.316 49.6387 201.316 48.828C201.316 48.0173 201.417 47.3333 201.62 46.776C201.822 46.168 202.202 45.7373 202.76 45.484C203.317 45.18 204.153 45.028 205.268 45.028C206.332 45.028 207.142 45.18 207.7 45.484C208.257 45.788 208.612 46.244 208.764 46.852C208.966 47.46 209.068 48.1693 209.068 48.98C209.068 49.7907 208.966 50.5 208.764 51.108C208.612 51.6653 208.257 52.096 207.7 52.4C207.142 52.704 206.306 52.856 205.192 52.856ZM246.812 62.508C247.521 63.0653 248.002 63.5973 248.256 64.104C248.509 64.56 248.534 65.092 248.332 65.7C248.129 66.2573 247.673 66.9413 246.964 67.752L222.948 97.316C222.289 98.076 221.706 98.5827 221.2 98.836C220.693 99.14 220.186 99.216 219.68 99.064C219.224 98.912 218.666 98.5827 218.008 98.076C217.349 97.5187 216.893 97.012 216.64 96.556C216.437 96.0493 216.437 95.5173 216.64 94.96C216.893 94.4027 217.349 93.7187 218.008 92.908L242.024 63.344C243.037 62.2293 243.848 61.6213 244.456 61.52C245.064 61.368 245.849 61.6973 246.812 62.508ZM218.16 62.508C218.818 62.0013 219.376 61.672 219.832 61.52C220.338 61.368 220.82 61.444 221.276 61.748C221.732 62.052 222.264 62.584 222.872 63.344L246.888 92.908C247.597 93.7187 248.053 94.4027 248.256 94.96C248.509 95.5173 248.509 96.0493 248.256 96.556C248.053 97.012 247.597 97.5187 246.888 98.076C246.28 98.5827 245.722 98.912 245.216 99.064C244.76 99.216 244.278 99.14 243.772 98.836C243.265 98.5827 242.682 98.076 242.024 97.316L218.008 67.752C217.298 66.9413 216.842 66.2573 216.64 65.7C216.437 65.092 216.437 64.56 216.64 64.104C216.893 63.5973 217.4 63.0653 218.16 62.508Z" fill="#4A2F0B"/>
<path d="M258.754 98.76C257.842 98.76 257.133 98.5827 256.626 98.228C256.17 97.924 255.866 97.468 255.714 96.86C255.562 96.2013 255.486 95.492 255.486 94.732V49.588C255.486 48.828 255.562 48.1693 255.714 47.612C255.917 47.004 256.246 46.548 256.702 46.244C257.209 45.8893 257.918 45.712 258.83 45.712H280.034C282.872 45.712 285.354 46.3453 287.482 47.612C289.661 48.8787 291.358 50.6013 292.574 52.78C293.79 54.9587 294.373 57.34 294.322 59.924C294.373 61.2413 294.221 62.5333 293.866 63.8C293.512 65.0667 292.98 66.2573 292.27 67.372C291.612 68.436 290.776 69.3227 289.762 70.032C291.13 70.8933 292.296 72.008 293.258 73.376C294.221 74.744 294.956 76.264 295.462 77.936C295.969 79.608 296.222 81.356 296.222 83.18C296.172 85.3587 295.766 87.4107 295.006 89.336C294.246 91.2107 293.157 92.8573 291.738 94.276C290.32 95.6947 288.673 96.8093 286.798 97.62C284.924 98.38 282.922 98.76 280.794 98.76H258.754ZM262.326 92.224H280.034C282.01 92.224 283.708 91.844 285.126 91.084C286.545 90.324 287.634 89.2093 288.394 87.74C289.154 86.2707 289.534 84.472 289.534 82.344C289.534 80.52 289.281 79.0507 288.774 77.936C288.268 76.8213 287.584 75.9853 286.722 75.428C285.861 74.82 284.924 74.3893 283.91 74.136C282.948 73.8827 281.985 73.756 281.022 73.756C280.11 73.7053 279.274 73.68 278.514 73.68H273.878C272.865 73.68 272.13 73.4267 271.674 72.92C271.218 72.4133 270.99 71.6027 270.99 70.488C270.99 69.424 271.218 68.664 271.674 68.208C272.181 67.752 272.941 67.524 273.954 67.524H278.59C279.401 67.524 280.313 67.4987 281.326 67.448C282.34 67.3973 283.328 67.1947 284.29 66.84C285.304 66.4853 286.114 65.8267 286.722 64.864C287.381 63.8507 287.71 62.432 287.71 60.608C287.71 57.7707 286.95 55.6933 285.43 54.376C283.91 53.008 281.402 52.324 277.906 52.324H262.326V92.224ZM321.811 99.14C318.771 99.14 316.061 98.6333 313.679 97.62C311.298 96.6067 309.271 95.2387 307.599 93.516C305.978 91.7427 304.737 89.716 303.875 87.436C303.014 85.156 302.583 82.6987 302.583 80.064C302.583 76.568 303.394 73.452 305.015 70.716C306.637 67.98 308.866 65.8267 311.703 64.256C314.591 62.6347 317.885 61.824 321.583 61.824C324.117 61.824 326.371 62.2293 328.347 63.04C330.374 63.8 332.097 64.8387 333.515 66.156C334.934 67.4733 336.023 68.9427 336.783 70.564C337.543 72.1853 337.923 73.8067 337.923 75.428C337.923 78.012 337.315 79.836 336.099 80.9C334.883 81.9133 333.389 82.42 331.615 82.42H309.651C309.601 84.6493 310.183 86.5747 311.399 88.196C312.666 89.7667 314.237 90.9827 316.111 91.844C318.037 92.7053 319.962 93.136 321.887 93.136C323.306 93.136 324.522 93.06 325.535 92.908C326.549 92.756 327.435 92.5533 328.195 92.3C328.955 92.0467 329.614 91.7933 330.171 91.54C330.729 91.2867 331.21 91.0333 331.615 90.78C332.071 90.5267 332.502 90.3493 332.907 90.248C333.363 90.1467 333.794 90.1973 334.199 90.4C334.655 90.552 335.01 90.8813 335.263 91.388C335.567 91.7933 335.77 92.1733 335.871 92.528C335.973 92.8827 336.023 93.2627 336.023 93.668C336.023 94.3773 335.415 95.1627 334.199 96.024C332.983 96.8853 331.286 97.62 329.107 98.228C326.979 98.836 324.547 99.14 321.811 99.14ZM309.651 77.936H328.727C329.69 77.936 330.399 77.8093 330.855 77.556C331.362 77.3027 331.615 76.6187 331.615 75.504C331.615 74.0853 331.185 72.8187 330.323 71.704C329.462 70.5387 328.271 69.6013 326.751 68.892C325.282 68.1827 323.585 67.828 321.659 67.828C319.43 67.828 317.378 68.284 315.503 69.196C313.679 70.0573 312.235 71.248 311.171 72.768C310.107 74.288 309.601 76.0107 309.651 77.936ZM362.854 99.14C359.814 99.14 357.104 98.6333 354.722 97.62C352.341 96.6067 350.314 95.2387 348.642 93.516C347.021 91.7427 345.78 89.716 344.918 87.436C344.057 85.156 343.626 82.6987 343.626 80.064C343.626 76.568 344.437 73.452 346.058 70.716C347.68 67.98 349.909 65.8267 352.746 64.256C355.634 62.6347 358.928 61.824 362.626 61.824C365.16 61.824 367.414 62.2293 369.39 63.04C371.417 63.8 373.14 64.8387 374.558 66.156C375.977 67.4733 377.066 68.9427 377.826 70.564C378.586 72.1853 378.966 73.8067 378.966 75.428C378.966 78.012 378.358 79.836 377.142 80.9C375.926 81.9133 374.432 82.42 372.658 82.42H350.694C350.644 84.6493 351.226 86.5747 352.442 88.196C353.709 89.7667 355.28 90.9827 357.154 91.844C359.08 92.7053 361.005 93.136 362.93 93.136C364.349 93.136 365.565 93.06 366.578 92.908C367.592 92.756 368.478 92.5533 369.238 92.3C369.998 92.0467 370.657 91.7933 371.214 91.54C371.772 91.2867 372.253 91.0333 372.658 90.78C373.114 90.5267 373.545 90.3493 373.95 90.248C374.406 90.1467 374.837 90.1973 375.242 90.4C375.698 90.552 376.053 90.8813 376.306 91.388C376.61 91.7933 376.813 92.1733 376.914 92.528C377.016 92.8827 377.066 93.2627 377.066 93.668C377.066 94.3773 376.458 95.1627 375.242 96.024C374.026 96.8853 372.329 97.62 370.15 98.228C368.022 98.836 365.59 99.14 362.854 99.14ZM350.694 77.936H369.77C370.733 77.936 371.442 77.8093 371.898 77.556C372.405 77.3027 372.658 76.6187 372.658 75.504C372.658 74.0853 372.228 72.8187 371.366 71.704C370.505 70.5387 369.314 69.6013 367.794 68.892C366.325 68.1827 364.628 67.828 362.702 67.828C360.473 67.828 358.421 68.284 356.546 69.196C354.722 70.0573 353.278 71.248 352.214 72.768C351.15 74.288 350.644 76.0107 350.694 77.936Z" fill="#8A5611"/>
</svg>
