<svg width="374" height="138" viewBox="0 0 374 138" fill="none" xmlns="http://www.w3.org/2000/svg">
<path d="M44.7145 78.3295C46.6302 77.2235 48.9904 77.2235 50.9061 78.3295L71.5248 90.2337C73.4404 91.3397 74.6205 93.3837 74.6205 95.5958V119.404C74.6205 121.616 73.4404 123.66 71.5248 124.766L50.9061 136.67C48.9904 137.777 46.6302 137.777 44.7145 136.67L24.0958 124.766C22.1801 123.66 21 121.616 21 119.404V95.5958C21 93.3838 22.1801 91.3397 24.0958 90.2337L44.7145 78.3295Z" fill="#4A2F0B"/>
<path d="M70.8823 34.3433C72.8115 33.2189 75.1885 33.2189 77.1177 34.3433L97.8823 46.446C99.8115 47.5704 101 49.6485 101 51.8974V76.1026C101 78.3515 99.8115 80.4296 97.8823 81.554L77.1177 93.6567C75.1885 94.7811 72.8115 94.7811 70.8823 93.6567L50.1177 81.554C48.1885 80.4296 47 78.3515 47 76.1026V51.8974C47 49.6485 48.1885 47.5704 50.1177 46.446L70.8823 34.3433Z" fill="#4A2F0B"/>
<path d="M129 33.8125L104.675 47.661C102.71 48.7797 100.29 48.7797 98.3246 47.661L77.1754 35.6204C75.2105 34.5017 74 32.4343 74 30.1969V2.5" stroke="#4A2F0B" stroke-width="5" stroke-linecap="round"/>
<path d="M95.1416 78.5029C96.2926 77.8323 97.7074 77.8323 98.8584 78.5029L119.623 90.6055C120.777 91.2781 121.5 92.5302 121.5 93.8975V118.103C121.5 119.47 120.777 120.722 119.623 121.395L98.8584 133.497C97.7074 134.168 96.2926 134.168 95.1416 133.497L74.377 121.395C73.223 120.722 72.5 119.47 72.5 118.103V93.8975C72.5 92.5302 73.223 91.2781 74.377 90.6055L95.1416 78.5029Z" fill="#4A2F0B" stroke="#4A2F0B" stroke-width="5"/>
<path d="M94.4597 81.6913C96.0316 80.7696 97.9684 80.7696 99.5403 81.6913L116.46 91.6114C118.032 92.5331 119 94.2365 119 96.0798V115.92C119 117.764 118.032 119.467 116.46 120.389L99.5403 130.309C97.9684 131.23 96.0316 131.23 94.4597 130.309L77.5403 120.389C75.9684 119.467 75 117.764 75 115.92V96.0798C75 94.2365 75.9684 92.5331 77.5403 91.6114L94.4597 81.6913Z" fill="#FBB800"/>
<path d="M25.1416 36.5029C26.2926 35.8323 27.7074 35.8323 28.8584 36.5029L49.623 48.6055C50.777 49.2781 51.5 50.5302 51.5 51.8975V76.1025C51.5 77.4698 50.777 78.7219 49.623 79.3945L28.8584 91.4971C27.7074 92.1677 26.2926 92.1677 25.1416 91.4971L4.37695 79.3945C3.22296 78.7219 2.5 77.4698 2.5 76.1025V51.8975C2.5 50.5302 3.22296 49.2781 4.37695 48.6055L25.1416 36.5029Z" fill="#4A2F0B" stroke="#4A2F0B" stroke-width="5"/>
<path d="M24.4597 39.6774C26.0316 38.7742 27.9684 38.7742 29.5403 39.6774L46.4597 49.3992C48.0316 50.3025 49 51.9717 49 53.7782V73.2218C49 75.0283 48.0316 76.6975 46.4597 77.6008L29.5403 87.3226C27.9684 88.2258 26.0316 88.2258 24.4597 87.3226L7.54034 77.6008C5.96837 76.6975 5 75.0283 5 73.2218V53.7782C5 51.9717 5.96837 50.3025 7.54034 49.3992L24.4597 39.6774Z" fill="#FBB800"/>
<path d="M151.415 98.76C150.401 98.76 149.641 98.608 149.135 98.304C148.679 98.0507 148.375 97.6707 148.223 97.164C148.071 96.6067 147.995 95.9733 147.995 95.264V49.132C147.995 47.8147 148.248 46.928 148.755 46.472C149.312 45.9653 150.275 45.712 151.643 45.712H182.195C182.904 45.712 183.487 45.788 183.943 45.94C184.449 46.092 184.829 46.4213 185.083 46.928C185.336 47.4347 185.463 48.1947 185.463 49.208C185.463 50.2213 185.311 50.9813 185.007 51.488C184.753 51.944 184.373 52.248 183.867 52.4C183.36 52.552 182.752 52.628 182.043 52.628H154.835V68.36H173.759C174.468 68.36 175.051 68.436 175.507 68.588C176.013 68.74 176.393 69.044 176.647 69.5C176.9 69.956 177.027 70.6653 177.027 71.628C177.027 72.54 176.9 73.224 176.647 73.68C176.393 74.136 176.013 74.44 175.507 74.592C175.051 74.6933 174.443 74.744 173.683 74.744H154.835V95.34C154.835 96.0493 154.759 96.6573 154.607 97.164C154.455 97.6707 154.125 98.0507 153.619 98.304C153.163 98.608 152.428 98.76 151.415 98.76ZM197.192 98.76C196.229 98.76 195.494 98.608 194.988 98.304C194.532 98.0507 194.228 97.6707 194.076 97.164C193.924 96.6573 193.848 96.0493 193.848 95.34V65.32C193.848 64.6107 193.924 64.0027 194.076 63.496C194.228 62.9893 194.532 62.6093 194.988 62.356C195.494 62.1027 196.254 61.976 197.268 61.976C198.23 61.976 198.94 62.128 199.396 62.432C199.852 62.6853 200.156 63.0653 200.308 63.572C200.46 64.0787 200.536 64.712 200.536 65.472V95.416C200.536 96.1253 200.46 96.7333 200.308 97.24C200.156 97.7467 199.826 98.1267 199.32 98.38C198.864 98.6333 198.154 98.76 197.192 98.76ZM197.192 52.856C196.077 52.856 195.241 52.704 194.684 52.4C194.126 52.0453 193.746 51.564 193.544 50.956C193.392 50.348 193.316 49.6387 193.316 48.828C193.316 48.0173 193.417 47.3333 193.62 46.776C193.822 46.168 194.202 45.7373 194.76 45.484C195.317 45.18 196.153 45.028 197.268 45.028C198.332 45.028 199.142 45.18 199.7 45.484C200.257 45.788 200.612 46.244 200.764 46.852C200.966 47.46 201.068 48.1693 201.068 48.98C201.068 49.7907 200.966 50.5 200.764 51.108C200.612 51.6653 200.257 52.096 199.7 52.4C199.142 52.704 198.306 52.856 197.192 52.856ZM238.812 62.508C239.521 63.0653 240.002 63.5973 240.256 64.104C240.509 64.56 240.534 65.092 240.332 65.7C240.129 66.2573 239.673 66.9413 238.964 67.752L214.948 97.316C214.289 98.076 213.706 98.5827 213.2 98.836C212.693 99.14 212.186 99.216 211.68 99.064C211.224 98.912 210.666 98.5827 210.008 98.076C209.349 97.5187 208.893 97.012 208.64 96.556C208.437 96.0493 208.437 95.5173 208.64 94.96C208.893 94.4027 209.349 93.7187 210.008 92.908L234.024 63.344C235.037 62.2293 235.848 61.6213 236.456 61.52C237.064 61.368 237.849 61.6973 238.812 62.508ZM210.16 62.508C210.818 62.0013 211.376 61.672 211.832 61.52C212.338 61.368 212.82 61.444 213.276 61.748C213.732 62.052 214.264 62.584 214.872 63.344L238.888 92.908C239.597 93.7187 240.053 94.4027 240.256 94.96C240.509 95.5173 240.509 96.0493 240.256 96.556C240.053 97.012 239.597 97.5187 238.888 98.076C238.28 98.5827 237.722 98.912 237.216 99.064C236.76 99.216 236.278 99.14 235.772 98.836C235.265 98.5827 234.682 98.076 234.024 97.316L210.008 67.752C209.298 66.9413 208.842 66.2573 208.64 65.7C208.437 65.092 208.437 64.56 208.64 64.104C208.893 63.5973 209.4 63.0653 210.16 62.508Z" fill="#4A2F0B"/>
<path d="M250.754 98.76C249.842 98.76 249.133 98.5827 248.626 98.228C248.17 97.924 247.866 97.468 247.714 96.86C247.562 96.2013 247.486 95.492 247.486 94.732V49.588C247.486 48.828 247.562 48.1693 247.714 47.612C247.917 47.004 248.246 46.548 248.702 46.244C249.209 45.8893 249.918 45.712 250.83 45.712H272.034C274.872 45.712 277.354 46.3453 279.482 47.612C281.661 48.8787 283.358 50.6013 284.574 52.78C285.79 54.9587 286.373 57.34 286.322 59.924C286.373 61.2413 286.221 62.5333 285.866 63.8C285.512 65.0667 284.98 66.2573 284.27 67.372C283.612 68.436 282.776 69.3227 281.762 70.032C283.13 70.8933 284.296 72.008 285.258 73.376C286.221 74.744 286.956 76.264 287.462 77.936C287.969 79.608 288.222 81.356 288.222 83.18C288.172 85.3587 287.766 87.4107 287.006 89.336C286.246 91.2107 285.157 92.8573 283.738 94.276C282.32 95.6947 280.673 96.8093 278.798 97.62C276.924 98.38 274.922 98.76 272.794 98.76H250.754ZM254.326 92.224H272.034C274.01 92.224 275.708 91.844 277.126 91.084C278.545 90.324 279.634 89.2093 280.394 87.74C281.154 86.2707 281.534 84.472 281.534 82.344C281.534 80.52 281.281 79.0507 280.774 77.936C280.268 76.8213 279.584 75.9853 278.722 75.428C277.861 74.82 276.924 74.3893 275.91 74.136C274.948 73.8827 273.985 73.756 273.022 73.756C272.11 73.7053 271.274 73.68 270.514 73.68H265.878C264.865 73.68 264.13 73.4267 263.674 72.92C263.218 72.4133 262.99 71.6027 262.99 70.488C262.99 69.424 263.218 68.664 263.674 68.208C264.181 67.752 264.941 67.524 265.954 67.524H270.59C271.401 67.524 272.313 67.4987 273.326 67.448C274.34 67.3973 275.328 67.1947 276.29 66.84C277.304 66.4853 278.114 65.8267 278.722 64.864C279.381 63.8507 279.71 62.432 279.71 60.608C279.71 57.7707 278.95 55.6933 277.43 54.376C275.91 53.008 273.402 52.324 269.906 52.324H254.326V92.224ZM313.811 99.14C310.771 99.14 308.061 98.6333 305.679 97.62C303.298 96.6067 301.271 95.2387 299.599 93.516C297.978 91.7427 296.737 89.716 295.875 87.436C295.014 85.156 294.583 82.6987 294.583 80.064C294.583 76.568 295.394 73.452 297.015 70.716C298.637 67.98 300.866 65.8267 303.703 64.256C306.591 62.6347 309.885 61.824 313.583 61.824C316.117 61.824 318.371 62.2293 320.347 63.04C322.374 63.8 324.097 64.8387 325.515 66.156C326.934 67.4733 328.023 68.9427 328.783 70.564C329.543 72.1853 329.923 73.8067 329.923 75.428C329.923 78.012 329.315 79.836 328.099 80.9C326.883 81.9133 325.389 82.42 323.615 82.42H301.651C301.601 84.6493 302.183 86.5747 303.399 88.196C304.666 89.7667 306.237 90.9827 308.111 91.844C310.037 92.7053 311.962 93.136 313.887 93.136C315.306 93.136 316.522 93.06 317.535 92.908C318.549 92.756 319.435 92.5533 320.195 92.3C320.955 92.0467 321.614 91.7933 322.171 91.54C322.729 91.2867 323.21 91.0333 323.615 90.78C324.071 90.5267 324.502 90.3493 324.907 90.248C325.363 90.1467 325.794 90.1973 326.199 90.4C326.655 90.552 327.01 90.8813 327.263 91.388C327.567 91.7933 327.77 92.1733 327.871 92.528C327.973 92.8827 328.023 93.2627 328.023 93.668C328.023 94.3773 327.415 95.1627 326.199 96.024C324.983 96.8853 323.286 97.62 321.107 98.228C318.979 98.836 316.547 99.14 313.811 99.14ZM301.651 77.936H320.727C321.69 77.936 322.399 77.8093 322.855 77.556C323.362 77.3027 323.615 76.6187 323.615 75.504C323.615 74.0853 323.185 72.8187 322.323 71.704C321.462 70.5387 320.271 69.6013 318.751 68.892C317.282 68.1827 315.585 67.828 313.659 67.828C311.43 67.828 309.378 68.284 307.503 69.196C305.679 70.0573 304.235 71.248 303.171 72.768C302.107 74.288 301.601 76.0107 301.651 77.936ZM354.854 99.14C351.814 99.14 349.104 98.6333 346.722 97.62C344.341 96.6067 342.314 95.2387 340.642 93.516C339.021 91.7427 337.78 89.716 336.918 87.436C336.057 85.156 335.626 82.6987 335.626 80.064C335.626 76.568 336.437 73.452 338.058 70.716C339.68 67.98 341.909 65.8267 344.746 64.256C347.634 62.6347 350.928 61.824 354.626 61.824C357.16 61.824 359.414 62.2293 361.39 63.04C363.417 63.8 365.14 64.8387 366.558 66.156C367.977 67.4733 369.066 68.9427 369.826 70.564C370.586 72.1853 370.966 73.8067 370.966 75.428C370.966 78.012 370.358 79.836 369.142 80.9C367.926 81.9133 366.432 82.42 364.658 82.42H342.694C342.644 84.6493 343.226 86.5747 344.442 88.196C345.709 89.7667 347.28 90.9827 349.154 91.844C351.08 92.7053 353.005 93.136 354.93 93.136C356.349 93.136 357.565 93.06 358.578 92.908C359.592 92.756 360.478 92.5533 361.238 92.3C361.998 92.0467 362.657 91.7933 363.214 91.54C363.772 91.2867 364.253 91.0333 364.658 90.78C365.114 90.5267 365.545 90.3493 365.95 90.248C366.406 90.1467 366.837 90.1973 367.242 90.4C367.698 90.552 368.053 90.8813 368.306 91.388C368.61 91.7933 368.813 92.1733 368.914 92.528C369.016 92.8827 369.066 93.2627 369.066 93.668C369.066 94.3773 368.458 95.1627 367.242 96.024C366.026 96.8853 364.329 97.62 362.15 98.228C360.022 98.836 357.59 99.14 354.854 99.14ZM342.694 77.936H361.77C362.733 77.936 363.442 77.8093 363.898 77.556C364.405 77.3027 364.658 76.6187 364.658 75.504C364.658 74.0853 364.228 72.8187 363.366 71.704C362.505 70.5387 361.314 69.6013 359.794 68.892C358.325 68.1827 356.628 67.828 354.702 67.828C352.473 67.828 350.421 68.284 348.546 69.196C346.722 70.0573 345.278 71.248 344.214 72.768C343.15 74.288 342.644 76.0107 342.694 77.936Z" fill="#8A5611"/>
</svg>
