<svg width="40" height="40" viewBox="0 0 40 40" fill="none" xmlns="http://www.w3.org/2000/svg">
<path d="M17.5 1.72463C19.047 0.831461 20.953 0.831462 22.5 1.72463L34.8205 8.83787C36.3675 9.73104 37.3205 11.3817 37.3205 13.168V27.3945C37.3205 29.1808 36.3675 30.8315 34.8205 31.7246L22.5 38.8379C20.953 39.731 19.047 39.731 17.5 38.8379L5.17949 31.7246C3.63249 30.8315 2.67949 29.1808 2.67949 27.3945V13.168C2.67949 11.3817 3.63249 9.73104 5.17949 8.83787L17.5 1.72463Z" fill="#FFDF88"/>
<path d="M22.2501 15.2499C22.0974 15.4057 22.0119 15.6151 22.0119 15.8333C22.0119 16.0514 22.0974 16.2608 22.2501 16.4166L23.5835 17.7499C23.7392 17.9026 23.9487 17.9882 24.1668 17.9882C24.3849 17.9882 24.5943 17.9026 24.7501 17.7499L27.8918 14.6083C28.3108 15.5343 28.4377 16.566 28.2555 17.5659C28.0733 18.5658 27.5907 19.4865 26.872 20.2052C26.1533 20.9239 25.2327 21.4065 24.2327 21.5887C23.2328 21.7708 22.2011 21.644 21.2751 21.2249L15.5168 26.9833C15.1853 27.3148 14.7356 27.501 14.2668 27.501C13.7979 27.501 13.3483 27.3148 13.0168 26.9833C12.6853 26.6518 12.499 26.2021 12.499 25.7333C12.499 25.2644 12.6853 24.8148 13.0168 24.4833L18.7751 18.7249C18.3561 17.799 18.2292 16.7672 18.4114 15.7673C18.5936 14.7674 19.0762 13.8467 19.7949 13.128C20.5136 12.4093 21.4342 11.9267 22.4342 11.7446C23.4341 11.5624 24.4658 11.6892 25.3918 12.1083L22.2585 15.2416L22.2501 15.2499Z" stroke="#4A2F0B" stroke-width="1.66667" stroke-linecap="round" stroke-linejoin="round"/>
</svg>
