<svg width="40" height="40" viewBox="0 0 40 40" fill="none" xmlns="http://www.w3.org/2000/svg">
<path d="M17.5 1.72463C19.047 0.831461 20.953 0.831462 22.5 1.72463L34.8205 8.83787C36.3675 9.73104 37.3205 11.3817 37.3205 13.168V27.3945C37.3205 29.1808 36.3675 30.8315 34.8205 31.7246L22.5 38.8379C20.953 39.731 19.047 39.731 17.5 38.8379L5.17949 31.7246C3.63249 30.8315 2.67949 29.1808 2.67949 27.3945V13.168C2.67949 11.3817 3.63249 9.73104 5.17949 8.83787L17.5 1.72463Z" fill="#FFDF88"/>
<path d="M12.5 24.1667L14.1667 25.8333L17.5 22.5" stroke="#4A2F0B" stroke-width="1.66667" stroke-linecap="round" stroke-linejoin="round"/>
<path d="M12.5 15.8332L14.1667 17.4998L17.5 14.1665" stroke="#4A2F0B" stroke-width="1.66667" stroke-linecap="round" stroke-linejoin="round"/>
<path d="M20.833 15H27.4997" stroke="#4A2F0B" stroke-width="1.66667" stroke-linecap="round" stroke-linejoin="round"/>
<path d="M20.833 20H27.4997" stroke="#4A2F0B" stroke-width="1.66667" stroke-linecap="round" stroke-linejoin="round"/>
<path d="M20.833 25H27.4997" stroke="#4A2F0B" stroke-width="1.66667" stroke-linecap="round" stroke-linejoin="round"/>
</svg>
