<svg width="40" height="40" viewBox="0 0 40 40" fill="none" xmlns="http://www.w3.org/2000/svg">
<path d="M17.5 1.72463C19.047 0.831461 20.953 0.831462 22.5 1.72463L34.8205 8.83787C36.3675 9.73104 37.3205 11.3817 37.3205 13.168V27.3945C37.3205 29.1808 36.3675 30.8315 34.8205 31.7246L22.5 38.8379C20.953 39.731 19.047 39.731 17.5 38.8379L5.17949 31.7246C3.63249 30.8315 2.67949 29.1808 2.67949 27.3945V13.168C2.67949 11.3817 3.63249 9.73104 5.17949 8.83787L17.5 1.72463Z" fill="#FFDF88"/>
<path d="M26.6663 20.8335C26.6663 25.0002 23.7497 27.0835 20.283 28.2919C20.1015 28.3534 19.9043 28.3505 19.7247 28.2835C16.2497 27.0835 13.333 25.0002 13.333 20.8335V15.0002C13.333 14.7792 13.4208 14.5672 13.5771 14.411C13.7334 14.2547 13.9453 14.1669 14.1663 14.1669C15.833 14.1669 17.9163 13.1669 19.3663 11.9002C19.5429 11.7494 19.7675 11.6665 19.9997 11.6665C20.2319 11.6665 20.4565 11.7494 20.633 11.9002C22.0913 13.1752 24.1663 14.1669 25.833 14.1669C26.054 14.1669 26.266 14.2547 26.4223 14.411C26.5785 14.5672 26.6663 14.7792 26.6663 15.0002V20.8335Z" stroke="#4A2F0B" stroke-width="1.66667" stroke-linecap="round" stroke-linejoin="round"/>
</svg>
