<svg width="40" height="40" viewBox="0 0 40 40" fill="none" xmlns="http://www.w3.org/2000/svg">
<path d="M17.5 1.72463C19.047 0.831461 20.953 0.831462 22.5 1.72463L34.8205 8.83787C36.3675 9.73104 37.3205 11.3817 37.3205 13.168V27.3945C37.3205 29.1808 36.3675 30.8315 34.8205 31.7246L22.5 38.8379C20.953 39.731 19.047 39.731 17.5 38.8379L5.17949 31.7246C3.63249 30.8315 2.67949 29.1808 2.67949 27.3945V13.168C2.67949 11.3817 3.63249 9.73104 5.17949 8.83787L17.5 1.72463Z" fill="#FFDF88"/>
<path d="M27.5 22.5C27.5 22.942 27.3244 23.366 27.0118 23.6785C26.6993 23.9911 26.2754 24.1667 25.8333 24.1667H15.8333L12.5 27.5V14.1667C12.5 13.7246 12.6756 13.3007 12.9882 12.9882C13.3007 12.6756 13.7246 12.5 14.1667 12.5H25.8333C26.2754 12.5 26.6993 12.6756 27.0118 12.9882C27.3244 13.3007 27.5 13.7246 27.5 14.1667V22.5Z" stroke="#4A2F0B" stroke-width="1.66667" stroke-linecap="round" stroke-linejoin="round"/>
</svg>
