<svg width="40" height="40" viewBox="0 0 40 40" fill="none" xmlns="http://www.w3.org/2000/svg">
<path d="M17.5 1.72463C19.047 0.831461 20.953 0.831462 22.5 1.72463L34.8205 8.83787C36.3675 9.73104 37.3205 11.3817 37.3205 13.168V27.3945C37.3205 29.1808 36.3675 30.8315 34.8205 31.7246L22.5 38.8379C20.953 39.731 19.047 39.731 17.5 38.8379L5.17949 31.7246C3.63249 30.8315 2.67949 29.1808 2.67949 27.3945V13.168C2.67949 11.3817 3.63249 9.73104 5.17949 8.83787L17.5 1.72463Z" fill="#FFDF88"/>
<g clip-path="url(#clip0_751_4197)">
<path d="M23.3337 27.2187V25.5521C23.3337 24.668 22.9825 23.8202 22.3573 23.1951C21.7322 22.5699 20.8844 22.2188 20.0003 22.2188H15.0003C14.1163 22.2188 13.2684 22.5699 12.6433 23.1951C12.0182 23.8202 11.667 24.668 11.667 25.5521V27.2187" stroke="#4A2F0B" stroke-width="1.66667" stroke-linecap="round" stroke-linejoin="round"/>
<path d="M17.5003 18.8854C19.3413 18.8854 20.8337 17.393 20.8337 15.5521C20.8337 13.7111 19.3413 12.2188 17.5003 12.2188C15.6594 12.2188 14.167 13.7111 14.167 15.5521C14.167 17.393 15.6594 18.8854 17.5003 18.8854Z" stroke="#4A2F0B" stroke-width="1.66667" stroke-linecap="round" stroke-linejoin="round"/>
<path d="M28.333 27.2188V25.5521C28.3325 24.8136 28.0866 24.0961 27.6341 23.5124C27.1817 22.9287 26.5481 22.5118 25.833 22.3271" stroke="#4A2F0B" stroke-width="1.66667" stroke-linecap="round" stroke-linejoin="round"/>
<path d="M23.333 12.3271C24.05 12.5107 24.6855 12.9277 25.1394 13.5124C25.5932 14.0971 25.8395 14.8162 25.8395 15.5563C25.8395 16.2965 25.5932 17.0155 25.1394 17.6002C24.6855 18.1849 24.05 18.6019 23.333 18.7855" stroke="#4A2F0B" stroke-width="1.66667" stroke-linecap="round" stroke-linejoin="round"/>
</g>
<defs>
<clipPath id="clip0_751_4197">
<rect width="20" height="18" fill="white" transform="translate(10 11)"/>
</clipPath>
</defs>
</svg>
