<svg width="120" height="52" viewBox="0 0 120 52" fill="none" xmlns="http://www.w3.org/2000/svg">
<path d="M0 26C0 11.6406 11.6406 0 26 0H94C108.359 0 120 11.6406 120 26C120 40.3594 108.359 52 94 52H26C11.6406 52 0 40.3594 0 26Z" fill="#FDE68A"/>
<path d="M39.6748 31.16C38.7361 31.16 37.9361 30.984 37.2748 30.632C36.6241 30.28 36.1228 29.784 35.7708 29.144C35.4294 28.504 35.2374 27.752 35.1948 26.888C35.1841 26.4187 35.1788 25.9227 35.1788 25.4C35.1788 24.8667 35.1841 24.36 35.1948 23.88C35.2374 23.016 35.4294 22.2693 35.7708 21.64C36.1228 21.0107 36.6294 20.52 37.2908 20.168C37.9521 19.816 38.7468 19.64 39.6748 19.64C40.4321 19.64 41.0881 19.7467 41.6428 19.96C42.1974 20.1733 42.6508 20.4453 43.0028 20.776C43.3654 21.096 43.6321 21.432 43.8028 21.784C43.9841 22.136 44.0801 22.4453 44.0908 22.712C44.1014 22.808 44.0748 22.888 44.0108 22.952C43.9468 23.0053 43.8614 23.032 43.7548 23.032H42.8108C42.7041 23.032 42.6241 23.0107 42.5708 22.968C42.5281 22.9253 42.4854 22.8507 42.4427 22.744C42.3467 22.4667 42.1868 22.1947 41.9628 21.928C41.7494 21.6613 41.4561 21.4427 41.0828 21.272C40.7201 21.0907 40.2508 21 39.6748 21C38.8321 21 38.1494 21.2293 37.6268 21.688C37.1148 22.1467 36.8374 22.904 36.7948 23.96C36.7628 24.9093 36.7628 25.8587 36.7948 26.808C36.8374 27.8747 37.1201 28.6427 37.6428 29.112C38.1654 29.5707 38.8481 29.8 39.6908 29.8C40.2561 29.8 40.7574 29.6987 41.1948 29.496C41.6428 29.2827 41.9948 28.9573 42.2508 28.52C42.5068 28.0827 42.6348 27.528 42.6348 26.856V26.184H40.2348C40.1281 26.184 40.0374 26.152 39.9628 26.088C39.8988 26.0133 39.8668 25.9173 39.8668 25.8V25.288C39.8668 25.1707 39.8988 25.08 39.9628 25.016C40.0374 24.9413 40.1281 24.904 40.2348 24.904H43.8508C43.9681 24.904 44.0588 24.9413 44.1228 25.016C44.1868 25.08 44.2188 25.1707 44.2188 25.288V26.824C44.2188 27.6987 44.0374 28.4613 43.6748 29.112C43.3228 29.7627 42.8054 30.2693 42.1228 30.632C41.4401 30.984 40.6241 31.16 39.6748 31.16ZM46.6614 31C46.5547 31 46.464 30.968 46.3894 30.904C46.3254 30.8293 46.2934 30.7387 46.2934 30.632V23.048C46.2934 22.9413 46.3254 22.856 46.3894 22.792C46.464 22.7173 46.5547 22.68 46.6614 22.68H47.4294C47.536 22.68 47.6214 22.7173 47.6854 22.792C47.7494 22.856 47.7814 22.9413 47.7814 23.048V30.632C47.7814 30.7387 47.7494 30.8293 47.6854 30.904C47.6214 30.968 47.536 31 47.4294 31H46.6614ZM46.5334 21.128C46.4267 21.128 46.336 21.096 46.2614 21.032C46.1974 20.9573 46.1654 20.8667 46.1654 20.76V19.896C46.1654 19.7893 46.1974 19.704 46.2614 19.64C46.336 19.5653 46.4267 19.528 46.5334 19.528H47.5414C47.648 19.528 47.7334 19.5653 47.7974 19.64C47.872 19.704 47.9094 19.7893 47.9094 19.896V20.76C47.9094 20.8667 47.872 20.9573 47.7974 21.032C47.7334 21.096 47.648 21.128 47.5414 21.128H46.5334ZM53.4164 31C52.819 31 52.3337 30.888 51.9604 30.664C51.587 30.4293 51.315 30.104 51.1444 29.688C50.9737 29.2613 50.8884 28.76 50.8884 28.184V23.96H49.6404C49.5337 23.96 49.443 23.928 49.3684 23.864C49.3044 23.7893 49.2724 23.6987 49.2724 23.592V23.048C49.2724 22.9413 49.3044 22.856 49.3684 22.792C49.443 22.7173 49.5337 22.68 49.6404 22.68H50.8884V20.008C50.8884 19.9013 50.9204 19.816 50.9844 19.752C51.059 19.6773 51.1497 19.64 51.2564 19.64H52.0084C52.115 19.64 52.2004 19.6773 52.2644 19.752C52.339 19.816 52.3764 19.9013 52.3764 20.008V22.68H54.3604C54.467 22.68 54.5524 22.7173 54.6164 22.792C54.691 22.856 54.7284 22.9413 54.7284 23.048V23.592C54.7284 23.6987 54.691 23.7893 54.6164 23.864C54.5524 23.928 54.467 23.96 54.3604 23.96H52.3764V28.072C52.3764 28.5733 52.4617 28.968 52.6324 29.256C52.803 29.544 53.107 29.688 53.5444 29.688H54.5204C54.627 29.688 54.7124 29.7253 54.7764 29.8C54.851 29.864 54.8884 29.9493 54.8884 30.056V30.632C54.8884 30.7387 54.851 30.8293 54.7764 30.904C54.7124 30.968 54.627 31 54.5204 31H53.4164ZM56.9944 31C56.877 31 56.7864 30.968 56.7224 30.904C56.6584 30.8293 56.6264 30.7387 56.6264 30.632V20.184C56.6264 20.0667 56.6584 19.976 56.7224 19.912C56.7864 19.8373 56.877 19.8 56.9944 19.8H57.8104C57.9277 19.8 58.0184 19.8373 58.0824 19.912C58.157 19.976 58.1944 20.0667 58.1944 20.184V24.6H63.6984V20.184C63.6984 20.0667 63.7304 19.976 63.7944 19.912C63.869 19.8373 63.9597 19.8 64.0664 19.8H64.8824C64.9997 19.8 65.0904 19.8373 65.1544 19.912C65.229 19.976 65.2664 20.0667 65.2664 20.184V30.632C65.2664 30.7387 65.229 30.8293 65.1544 30.904C65.0904 30.968 64.9997 31 64.8824 31H64.0664C63.9597 31 63.869 30.968 63.7944 30.904C63.7304 30.8293 63.6984 30.7387 63.6984 30.632V26.04H58.1944V30.632C58.1944 30.7387 58.157 30.8293 58.0824 30.904C58.0184 30.968 57.9277 31 57.8104 31H56.9944ZM70.9286 31.16C70.246 31.16 69.6646 31.0107 69.1846 30.712C68.7153 30.4027 68.358 29.976 68.1126 29.432C67.8673 28.888 67.7446 28.264 67.7446 27.56V23.048C67.7446 22.9413 67.7766 22.856 67.8406 22.792C67.9153 22.7173 68.006 22.68 68.1126 22.68H68.9126C69.0193 22.68 69.1046 22.7173 69.1686 22.792C69.2433 22.856 69.2806 22.9413 69.2806 23.048V27.48C69.2806 29.0693 69.974 29.864 71.3606 29.864C72.022 29.864 72.55 29.656 72.9446 29.24C73.35 28.8133 73.5526 28.2267 73.5526 27.48V23.048C73.5526 22.9413 73.5846 22.856 73.6486 22.792C73.7233 22.7173 73.814 22.68 73.9206 22.68H74.7046C74.822 22.68 74.9126 22.7173 74.9766 22.792C75.0406 22.856 75.0726 22.9413 75.0726 23.048V30.632C75.0726 30.7387 75.0406 30.8293 74.9766 30.904C74.9126 30.968 74.822 31 74.7046 31H73.9686C73.862 31 73.7713 30.968 73.6966 30.904C73.6326 30.8293 73.6006 30.7387 73.6006 30.632V29.928C73.3126 30.3013 72.9606 30.6 72.5446 30.824C72.1393 31.048 71.6006 31.16 70.9286 31.16ZM81.5616 31.16C80.9216 31.16 80.3883 31.048 79.9616 30.824C79.535 30.5893 79.1936 30.3013 78.9376 29.96V30.632C78.9376 30.7387 78.9003 30.8293 78.8256 30.904C78.7616 30.968 78.6763 31 78.5696 31H77.8336C77.727 31 77.6363 30.968 77.5616 30.904C77.4976 30.8293 77.4656 30.7387 77.4656 30.632V20.008C77.4656 19.9013 77.4976 19.816 77.5616 19.752C77.6363 19.6773 77.727 19.64 77.8336 19.64H78.6016C78.719 19.64 78.8096 19.6773 78.8736 19.752C78.9376 19.816 78.9696 19.9013 78.9696 20.008V23.688C79.2363 23.3573 79.5776 23.08 79.9936 22.856C80.4203 22.632 80.943 22.52 81.5616 22.52C82.159 22.52 82.6656 22.6267 83.0816 22.84C83.5083 23.0427 83.855 23.3253 84.1216 23.688C84.399 24.0507 84.607 24.4613 84.7456 24.92C84.8843 25.3787 84.959 25.8587 84.9696 26.36C84.9803 26.5307 84.9856 26.6907 84.9856 26.84C84.9856 26.9893 84.9803 27.1493 84.9696 27.32C84.959 27.832 84.8843 28.3173 84.7456 28.776C84.607 29.2347 84.399 29.6453 84.1216 30.008C83.855 30.36 83.5083 30.6427 83.0816 30.856C82.6656 31.0587 82.159 31.16 81.5616 31.16ZM81.2256 29.864C81.7803 29.864 82.2123 29.7467 82.5216 29.512C82.8416 29.2667 83.071 28.952 83.2096 28.568C83.3483 28.1733 83.4283 27.752 83.4496 27.304C83.4603 26.9947 83.4603 26.6853 83.4496 26.376C83.4283 25.928 83.3483 25.512 83.2096 25.128C83.071 24.7333 82.8416 24.4187 82.5216 24.184C82.2123 23.9387 81.7803 23.816 81.2256 23.816C80.7243 23.816 80.3083 23.9333 79.9776 24.168C79.647 24.4027 79.3963 24.7013 79.2256 25.064C79.0656 25.4267 78.9803 25.7947 78.9696 26.168C78.959 26.3387 78.9536 26.5467 78.9536 26.792C78.9536 27.0267 78.959 27.2293 78.9696 27.4C78.991 27.7947 79.0763 28.184 79.2256 28.568C79.3856 28.9413 79.6256 29.2507 79.9456 29.496C80.2763 29.7413 80.703 29.864 81.2256 29.864Z" fill="#4A2F0B"/>
</svg>
