<svg width="143" height="52" viewBox="0 0 143 52" fill="none" xmlns="http://www.w3.org/2000/svg">
<path d="M0 26C0 11.6406 11.6406 0 26 0H117C131.359 0 143 11.6406 143 26C143 40.3594 131.359 52 117 52H26C11.6406 52 0 40.3594 0 26Z" fill="#FDE68A"/>
<path d="M36.1584 31C36.0411 31 35.9504 30.968 35.8864 30.904C35.8224 30.8293 35.7904 30.7387 35.7904 30.632V20.184C35.7904 20.0667 35.8224 19.976 35.8864 19.912C35.9504 19.8373 36.0411 19.8 36.1584 19.8H40.2224C41.0118 19.8 41.6944 19.928 42.2704 20.184C42.8571 20.44 43.3104 20.824 43.6304 21.336C43.9504 21.8373 44.1104 22.4667 44.1104 23.224C44.1104 23.9813 43.9504 24.6107 43.6304 25.112C43.3104 25.6133 42.8571 25.992 42.2704 26.248C41.6944 26.504 41.0118 26.632 40.2224 26.632H37.3904V30.632C37.3904 30.7387 37.3531 30.8293 37.2784 30.904C37.2144 30.968 37.1238 31 37.0064 31H36.1584ZM37.3744 25.288H40.1424C40.9318 25.288 41.5238 25.112 41.9184 24.76C42.3131 24.408 42.5104 23.896 42.5104 23.224C42.5104 22.5627 42.3184 22.0507 41.9344 21.688C41.5504 21.3253 40.9531 21.144 40.1424 21.144H37.3744V25.288ZM46.2161 31C46.1094 31 46.0187 30.968 45.9441 30.904C45.8801 30.8293 45.8481 30.7387 45.8481 30.632V23.064C45.8481 22.9573 45.8801 22.8667 45.9441 22.792C46.0187 22.7173 46.1094 22.68 46.2161 22.68H46.9521C47.0587 22.68 47.1494 22.7173 47.2241 22.792C47.2987 22.8667 47.3361 22.9573 47.3361 23.064V23.768C47.5494 23.4053 47.8427 23.1333 48.2161 22.952C48.5894 22.7707 49.0374 22.68 49.5601 22.68H50.2001C50.3067 22.68 50.3921 22.7173 50.4561 22.792C50.5201 22.856 50.5521 22.9413 50.5521 23.048V23.704C50.5521 23.8107 50.5201 23.896 50.4561 23.96C50.3921 24.024 50.3067 24.056 50.2001 24.056H49.2401C48.6641 24.056 48.2107 24.2267 47.8801 24.568C47.5494 24.8987 47.3841 25.352 47.3841 25.928V30.632C47.3841 30.7387 47.3467 30.8293 47.2721 30.904C47.1974 30.968 47.1067 31 47.0001 31H46.2161ZM55.1779 31.16C54.3673 31.16 53.6899 31.0053 53.1459 30.696C52.6019 30.3867 52.1859 29.96 51.8979 29.416C51.6099 28.8613 51.4499 28.232 51.4179 27.528C51.4073 27.3467 51.4019 27.1173 51.4019 26.84C51.4019 26.552 51.4073 26.3227 51.4179 26.152C51.4499 25.4373 51.6099 24.808 51.8979 24.264C52.1966 23.72 52.6179 23.2933 53.1619 22.984C53.7059 22.6747 54.3779 22.52 55.1779 22.52C55.9779 22.52 56.6499 22.6747 57.1939 22.984C57.7379 23.2933 58.1539 23.72 58.4419 24.264C58.7406 24.808 58.9059 25.4373 58.9379 26.152C58.9486 26.3227 58.9539 26.552 58.9539 26.84C58.9539 27.1173 58.9486 27.3467 58.9379 27.528C58.9059 28.232 58.7459 28.8613 58.4579 29.416C58.1699 29.96 57.7539 30.3867 57.2099 30.696C56.6659 31.0053 55.9886 31.16 55.1779 31.16ZM55.1779 29.928C55.8393 29.928 56.3673 29.72 56.7619 29.304C57.1566 28.8773 57.3699 28.2587 57.4019 27.448C57.4126 27.288 57.4179 27.0853 57.4179 26.84C57.4179 26.5947 57.4126 26.392 57.4019 26.232C57.3699 25.4213 57.1566 24.808 56.7619 24.392C56.3673 23.9653 55.8393 23.752 55.1779 23.752C54.5166 23.752 53.9833 23.9653 53.5779 24.392C53.1833 24.808 52.9753 25.4213 52.9539 26.232C52.9433 26.392 52.9379 26.5947 52.9379 26.84C52.9379 27.0853 52.9433 27.288 52.9539 27.448C52.9753 28.2587 53.1833 28.8773 53.5779 29.304C53.9833 29.72 54.5166 29.928 55.1779 29.928ZM64.1273 31C63.53 31 63.0446 30.888 62.6713 30.664C62.298 30.4293 62.026 30.104 61.8553 29.688C61.6846 29.2613 61.5993 28.76 61.5993 28.184V23.96H60.3513C60.2446 23.96 60.154 23.928 60.0793 23.864C60.0153 23.7893 59.9833 23.6987 59.9833 23.592V23.048C59.9833 22.9413 60.0153 22.856 60.0793 22.792C60.154 22.7173 60.2446 22.68 60.3513 22.68H61.5993V20.008C61.5993 19.9013 61.6313 19.816 61.6953 19.752C61.77 19.6773 61.8606 19.64 61.9673 19.64H62.7193C62.826 19.64 62.9113 19.6773 62.9753 19.752C63.05 19.816 63.0873 19.9013 63.0873 20.008V22.68H65.0713C65.178 22.68 65.2633 22.7173 65.3273 22.792C65.402 22.856 65.4393 22.9413 65.4393 23.048V23.592C65.4393 23.6987 65.402 23.7893 65.3273 23.864C65.2633 23.928 65.178 23.96 65.0713 23.96H63.0873V28.072C63.0873 28.5733 63.1726 28.968 63.3433 29.256C63.514 29.544 63.818 29.688 64.2553 29.688H65.2313C65.338 29.688 65.4233 29.7253 65.4873 29.8C65.562 29.864 65.5993 29.9493 65.5993 30.056V30.632C65.5993 30.7387 65.562 30.8293 65.4873 30.904C65.4233 30.968 65.338 31 65.2313 31H64.1273ZM70.5373 31.16C69.7266 31.16 69.0493 31.0053 68.5053 30.696C67.9613 30.3867 67.5453 29.96 67.2573 29.416C66.9693 28.8613 66.8093 28.232 66.7773 27.528C66.7666 27.3467 66.7613 27.1173 66.7613 26.84C66.7613 26.552 66.7666 26.3227 66.7773 26.152C66.8093 25.4373 66.9693 24.808 67.2573 24.264C67.556 23.72 67.9773 23.2933 68.5213 22.984C69.0653 22.6747 69.7373 22.52 70.5373 22.52C71.3373 22.52 72.0093 22.6747 72.5533 22.984C73.0973 23.2933 73.5133 23.72 73.8013 24.264C74.1 24.808 74.2653 25.4373 74.2973 26.152C74.308 26.3227 74.3133 26.552 74.3133 26.84C74.3133 27.1173 74.308 27.3467 74.2973 27.528C74.2653 28.232 74.1053 28.8613 73.8173 29.416C73.5293 29.96 73.1133 30.3867 72.5693 30.696C72.0253 31.0053 71.348 31.16 70.5373 31.16ZM70.5373 29.928C71.1986 29.928 71.7266 29.72 72.1213 29.304C72.516 28.8773 72.7293 28.2587 72.7613 27.448C72.772 27.288 72.7773 27.0853 72.7773 26.84C72.7773 26.5947 72.772 26.392 72.7613 26.232C72.7293 25.4213 72.516 24.808 72.1213 24.392C71.7266 23.9653 71.1986 23.752 70.5373 23.752C69.876 23.752 69.3426 23.9653 68.9373 24.392C68.5426 24.808 68.3346 25.4213 68.3133 26.232C68.3026 26.392 68.2973 26.5947 68.2973 26.84C68.2973 27.0853 68.3026 27.288 68.3133 27.448C68.3346 28.2587 68.5426 28.8773 68.9373 29.304C69.3426 29.72 69.876 29.928 70.5373 29.928ZM79.4867 31C78.8894 31 78.404 30.888 78.0307 30.664C77.6574 30.4293 77.3854 30.104 77.2147 29.688C77.044 29.2613 76.9587 28.76 76.9587 28.184V23.96H75.7107C75.604 23.96 75.5134 23.928 75.4387 23.864C75.3747 23.7893 75.3427 23.6987 75.3427 23.592V23.048C75.3427 22.9413 75.3747 22.856 75.4387 22.792C75.5134 22.7173 75.604 22.68 75.7107 22.68H76.9587V20.008C76.9587 19.9013 76.9907 19.816 77.0547 19.752C77.1294 19.6773 77.22 19.64 77.3267 19.64H78.0787C78.1854 19.64 78.2707 19.6773 78.3347 19.752C78.4094 19.816 78.4467 19.9013 78.4467 20.008V22.68H80.4307C80.5374 22.68 80.6227 22.7173 80.6867 22.792C80.7614 22.856 80.7987 22.9413 80.7987 23.048V23.592C80.7987 23.6987 80.7614 23.7893 80.6867 23.864C80.6227 23.928 80.5374 23.96 80.4307 23.96H78.4467V28.072C78.4467 28.5733 78.532 28.968 78.7027 29.256C78.8734 29.544 79.1774 29.688 79.6147 29.688H80.5907C80.6974 29.688 80.7827 29.7253 80.8467 29.8C80.9214 29.864 80.9587 29.9493 80.9587 30.056V30.632C80.9587 30.7387 80.9214 30.8293 80.8467 30.904C80.7827 30.968 80.6974 31 80.5907 31H79.4867ZM83.9447 34.04C83.8594 34.04 83.7847 34.008 83.7207 33.944C83.6567 33.88 83.6247 33.8053 83.6247 33.72C83.6247 33.6773 83.63 33.6347 83.6407 33.592C83.6514 33.5493 83.6727 33.496 83.7047 33.432L84.9367 30.504L81.8807 23.288C81.8274 23.16 81.8007 23.0693 81.8007 23.016C81.8007 22.92 81.8327 22.84 81.8967 22.776C81.9607 22.712 82.0407 22.68 82.1367 22.68H82.9207C83.0274 22.68 83.1127 22.7067 83.1767 22.76C83.2407 22.8133 83.2834 22.8773 83.3047 22.952L85.7367 28.776L88.2327 22.952C88.2647 22.8773 88.3074 22.8133 88.3607 22.76C88.4247 22.7067 88.5154 22.68 88.6327 22.68H89.3847C89.4807 22.68 89.5607 22.712 89.6247 22.776C89.6887 22.84 89.7207 22.9147 89.7207 23C89.7207 23.0533 89.694 23.1493 89.6407 23.288L85.0967 33.768C85.0647 33.8427 85.0167 33.9067 84.9527 33.96C84.8994 34.0133 84.814 34.04 84.6967 34.04H83.9447ZM91.6852 34.04C91.5785 34.04 91.4879 34.0027 91.4132 33.928C91.3492 33.864 91.3172 33.7787 91.3172 33.672V23.048C91.3172 22.9413 91.3492 22.856 91.4132 22.792C91.4879 22.7173 91.5785 22.68 91.6852 22.68H92.4212C92.5279 22.68 92.6132 22.7173 92.6772 22.792C92.7519 22.856 92.7892 22.9413 92.7892 23.048V23.752C93.0452 23.4 93.3865 23.1067 93.8132 22.872C94.2399 22.6373 94.7732 22.52 95.4132 22.52C96.0105 22.52 96.5172 22.6213 96.9332 22.824C97.3599 23.0267 97.7065 23.304 97.9732 23.656C98.2505 24.008 98.4585 24.408 98.5972 24.856C98.7359 25.304 98.8105 25.784 98.8212 26.296C98.8319 26.4667 98.8372 26.648 98.8372 26.84C98.8372 27.032 98.8319 27.2133 98.8212 27.384C98.8105 27.8853 98.7359 28.3653 98.5972 28.824C98.4585 29.272 98.2505 29.672 97.9732 30.024C97.7065 30.3653 97.3599 30.6427 96.9332 30.856C96.5172 31.0587 96.0105 31.16 95.4132 31.16C94.7945 31.16 94.2719 31.048 93.8452 30.824C93.4292 30.5893 93.0879 30.3013 92.8212 29.96V33.672C92.8212 33.7787 92.7892 33.864 92.7252 33.928C92.6612 34.0027 92.5705 34.04 92.4532 34.04H91.6852ZM95.0772 29.864C95.6319 29.864 96.0639 29.7467 96.3732 29.512C96.6932 29.2667 96.9225 28.952 97.0612 28.568C97.1999 28.1733 97.2799 27.752 97.3012 27.304C97.3119 26.9947 97.3119 26.6853 97.3012 26.376C97.2799 25.928 97.1999 25.512 97.0612 25.128C96.9225 24.7333 96.6932 24.4187 96.3732 24.184C96.0639 23.9387 95.6319 23.816 95.0772 23.816C94.5545 23.816 94.1279 23.9387 93.7972 24.184C93.4772 24.4293 93.2372 24.744 93.0772 25.128C92.9279 25.5013 92.8425 25.8853 92.8212 26.28C92.8105 26.4507 92.8052 26.6533 92.8052 26.888C92.8052 27.1227 92.8105 27.3307 92.8212 27.512C92.8319 27.8853 92.9172 28.2533 93.0772 28.616C93.2479 28.9787 93.4985 29.2773 93.8292 29.512C94.1599 29.7467 94.5759 29.864 95.0772 29.864ZM104.144 31.16C103.046 31.16 102.171 30.824 101.52 30.152C100.87 29.4693 100.512 28.5413 100.448 27.368C100.438 27.2293 100.432 27.0533 100.432 26.84C100.432 26.616 100.438 26.4347 100.448 26.296C100.491 25.5387 100.667 24.8773 100.976 24.312C101.286 23.736 101.707 23.2933 102.24 22.984C102.784 22.6747 103.419 22.52 104.144 22.52C104.955 22.52 105.632 22.6907 106.176 23.032C106.731 23.3733 107.152 23.8587 107.44 24.488C107.728 25.1173 107.872 25.8533 107.872 26.696V26.968C107.872 27.0853 107.835 27.176 107.76 27.24C107.696 27.304 107.611 27.336 107.504 27.336H101.968C101.968 27.3467 101.968 27.368 101.968 27.4C101.968 27.432 101.968 27.4587 101.968 27.48C101.99 27.9173 102.086 28.328 102.256 28.712C102.427 29.0853 102.672 29.3893 102.992 29.624C103.312 29.8587 103.696 29.976 104.144 29.976C104.528 29.976 104.848 29.9173 105.104 29.8C105.36 29.6827 105.568 29.5547 105.728 29.416C105.888 29.2667 105.995 29.1547 106.048 29.08C106.144 28.9413 106.219 28.8613 106.272 28.84C106.326 28.808 106.411 28.792 106.528 28.792H107.296C107.403 28.792 107.488 28.824 107.552 28.888C107.627 28.9413 107.659 29.0213 107.648 29.128C107.638 29.288 107.552 29.4853 107.392 29.72C107.232 29.944 107.003 30.168 106.704 30.392C106.406 30.616 106.043 30.8027 105.616 30.952C105.19 31.0907 104.699 31.16 104.144 31.16ZM101.968 26.232H106.352V26.184C106.352 25.704 106.262 25.2773 106.08 24.904C105.91 24.5307 105.659 24.2373 105.328 24.024C104.998 23.8 104.603 23.688 104.144 23.688C103.686 23.688 103.291 23.8 102.96 24.024C102.64 24.2373 102.395 24.5307 102.224 24.904C102.054 25.2773 101.968 25.704 101.968 26.184V26.232Z" fill="#4A2F0B"/>
</svg>
