<svg width="152" height="52" viewBox="0 0 152 52" fill="none" xmlns="http://www.w3.org/2000/svg">
<path d="M0 26C0 11.6406 11.6406 0 26 0H126C140.359 0 152 11.6406 152 26C152 40.3594 140.359 52 126 52H26C11.6406 52 0 40.3594 0 26Z" fill="#FDE68A"/>
<path d="M35.7834 31C35.6661 31 35.5754 30.968 35.5114 30.904C35.4474 30.8293 35.4154 30.7387 35.4154 30.632V20.184C35.4154 20.0667 35.4474 19.976 35.5114 19.912C35.5754 19.8373 35.6661 19.8 35.7834 19.8H42.3114C42.4288 19.8 42.5194 19.8373 42.5834 19.912C42.6474 19.976 42.6794 20.0667 42.6794 20.184V20.824C42.6794 20.9413 42.6474 21.032 42.5834 21.096C42.5194 21.16 42.4288 21.192 42.3114 21.192H36.9674V24.92H41.9914C42.1088 24.92 42.1994 24.9573 42.2634 25.032C42.3274 25.096 42.3594 25.1867 42.3594 25.304V25.944C42.3594 26.0507 42.3274 26.1413 42.2634 26.216C42.1994 26.28 42.1088 26.312 41.9914 26.312H36.9674V30.632C36.9674 30.7387 36.9301 30.8293 36.8554 30.904C36.7914 30.968 36.7008 31 36.5834 31H35.7834ZM44.9192 31C44.8125 31 44.7219 30.968 44.6472 30.904C44.5832 30.8293 44.5512 30.7387 44.5512 30.632V23.048C44.5512 22.9413 44.5832 22.856 44.6472 22.792C44.7219 22.7173 44.8125 22.68 44.9192 22.68H45.6872C45.7939 22.68 45.8792 22.7173 45.9432 22.792C46.0072 22.856 46.0392 22.9413 46.0392 23.048V30.632C46.0392 30.7387 46.0072 30.8293 45.9432 30.904C45.8792 30.968 45.7939 31 45.6872 31H44.9192ZM44.7912 21.128C44.6845 21.128 44.5939 21.096 44.5192 21.032C44.4552 20.9573 44.4232 20.8667 44.4232 20.76V19.896C44.4232 19.7893 44.4552 19.704 44.5192 19.64C44.5939 19.5653 44.6845 19.528 44.7912 19.528H45.7992C45.9059 19.528 45.9912 19.5653 46.0552 19.64C46.1299 19.704 46.1672 19.7893 46.1672 19.896V20.76C46.1672 20.8667 46.1299 20.9573 46.0552 21.032C45.9912 21.096 45.9059 21.128 45.7992 21.128H44.7912ZM51.8342 34.52C51.1089 34.52 50.5115 34.424 50.0422 34.232C49.5835 34.04 49.2209 33.8053 48.9542 33.528C48.6982 33.2613 48.5115 32.9893 48.3942 32.712C48.2875 32.4453 48.2289 32.232 48.2182 32.072C48.2075 31.9653 48.2395 31.8747 48.3142 31.8C48.3995 31.7253 48.4902 31.688 48.5862 31.688H49.3542C49.4502 31.688 49.5302 31.7093 49.5942 31.752C49.6582 31.7947 49.7115 31.8853 49.7542 32.024C49.8182 32.184 49.9142 32.36 50.0422 32.552C50.1702 32.7547 50.3675 32.9253 50.6342 33.064C50.9009 33.2133 51.2742 33.288 51.7542 33.288C52.2555 33.288 52.6769 33.2187 53.0182 33.08C53.3595 32.952 53.6155 32.7173 53.7862 32.376C53.9675 32.0453 54.0582 31.5867 54.0582 31V29.912C53.8022 30.2427 53.4662 30.52 53.0502 30.744C52.6342 30.9573 52.1115 31.064 51.4822 31.064C50.8849 31.064 50.3729 30.9627 49.9462 30.76C49.5195 30.5467 49.1675 30.264 48.8902 29.912C48.6235 29.5493 48.4209 29.1387 48.2822 28.68C48.1542 28.2213 48.0795 27.7413 48.0582 27.24C48.0475 26.9413 48.0475 26.648 48.0582 26.36C48.0795 25.8587 48.1542 25.3787 48.2822 24.92C48.4209 24.4613 48.6235 24.0507 48.8902 23.688C49.1675 23.3253 49.5195 23.0427 49.9462 22.84C50.3729 22.6267 50.8849 22.52 51.4822 22.52C52.1222 22.52 52.6502 22.6427 53.0662 22.888C53.4929 23.1227 53.8395 23.4107 54.1062 23.752V23.064C54.1062 22.9573 54.1382 22.8667 54.2022 22.792C54.2769 22.7173 54.3675 22.68 54.4742 22.68H55.2102C55.3169 22.68 55.4075 22.7173 55.4822 22.792C55.5569 22.8667 55.5942 22.9573 55.5942 23.064V30.824C55.5942 31.5387 55.4715 32.1733 55.2262 32.728C54.9915 33.2827 54.5969 33.72 54.0422 34.04C53.4982 34.36 52.7622 34.52 51.8342 34.52ZM51.8022 29.784C52.3355 29.784 52.7622 29.6613 53.0822 29.416C53.4129 29.1707 53.6529 28.8613 53.8022 28.488C53.9622 28.1147 54.0475 27.736 54.0582 27.352C54.0689 27.2027 54.0742 27.0213 54.0742 26.808C54.0742 26.584 54.0689 26.3973 54.0582 26.248C54.0475 25.864 53.9622 25.4853 53.8022 25.112C53.6529 24.7387 53.4129 24.4293 53.0822 24.184C52.7622 23.9387 52.3355 23.816 51.8022 23.816C51.2689 23.816 50.8422 23.9387 50.5222 24.184C50.2022 24.4187 49.9729 24.7333 49.8342 25.128C49.6955 25.512 49.6155 25.928 49.5942 26.376C49.5835 26.6533 49.5835 26.936 49.5942 27.224C49.6155 27.672 49.6955 28.0933 49.8342 28.488C49.9729 28.872 50.2022 29.1867 50.5222 29.432C50.8422 29.6667 51.2689 29.784 51.8022 29.784ZM58.3411 31C58.2344 31 58.1437 30.968 58.0691 30.904C58.0051 30.8293 57.9731 30.7387 57.9731 30.632V23.048C57.9731 22.9413 58.0051 22.856 58.0691 22.792C58.1437 22.7173 58.2344 22.68 58.3411 22.68H59.0611C59.1677 22.68 59.2531 22.7173 59.3171 22.792C59.3917 22.856 59.4291 22.9413 59.4291 23.048V23.608C59.6744 23.2773 59.9837 23.016 60.3571 22.824C60.7304 22.6213 61.1784 22.52 61.7011 22.52C62.9064 22.5093 63.7597 23 64.2611 23.992C64.5064 23.544 64.8637 23.1867 65.3331 22.92C65.8024 22.6533 66.3357 22.52 66.9331 22.52C67.4877 22.52 67.9891 22.648 68.4371 22.904C68.8957 23.16 69.2531 23.5493 69.5091 24.072C69.7757 24.584 69.9091 25.2293 69.9091 26.008V30.632C69.9091 30.7387 69.8717 30.8293 69.7971 30.904C69.7331 30.968 69.6477 31 69.5411 31H68.7891C68.6824 31 68.5917 30.968 68.5171 30.904C68.4531 30.8293 68.4211 30.7387 68.4211 30.632V26.152C68.4211 25.5547 68.3357 25.0853 68.1651 24.744C67.9944 24.4027 67.7651 24.1627 67.4771 24.024C67.1891 23.8853 66.8744 23.816 66.5331 23.816C66.2557 23.816 65.9731 23.8853 65.6851 24.024C65.3971 24.1627 65.1571 24.4027 64.9651 24.744C64.7837 25.0853 64.6931 25.5547 64.6931 26.152V30.632C64.6931 30.7387 64.6557 30.8293 64.5811 30.904C64.5171 30.968 64.4317 31 64.3251 31H63.5731C63.4664 31 63.3757 30.968 63.3011 30.904C63.2371 30.8293 63.2051 30.7387 63.2051 30.632V26.152C63.2051 25.5547 63.1144 25.0853 62.9331 24.744C62.7517 24.4027 62.5171 24.1627 62.2291 24.024C61.9411 23.8853 61.6371 23.816 61.3171 23.816C61.0397 23.816 60.7571 23.8853 60.4691 24.024C60.1811 24.1627 59.9411 24.4027 59.7491 24.744C59.5677 25.0853 59.4771 25.5493 59.4771 26.136V30.632C59.4771 30.7387 59.4397 30.8293 59.3651 30.904C59.3011 30.968 59.2157 31 59.1091 31H58.3411ZM74.5118 31.16C73.9785 31.16 73.4931 31.0533 73.0558 30.84C72.6185 30.6267 72.2665 30.3387 71.9998 29.976C71.7331 29.6133 71.5998 29.2027 71.5998 28.744C71.5998 28.008 71.8985 27.4213 72.4958 26.984C73.0931 26.5467 73.8718 26.2587 74.8318 26.12L77.2158 25.784V25.32C77.2158 24.808 77.0665 24.408 76.7678 24.12C76.4798 23.832 76.0051 23.688 75.3438 23.688C74.8638 23.688 74.4745 23.784 74.1758 23.976C73.8878 24.168 73.6851 24.4133 73.5678 24.712C73.5038 24.872 73.3918 24.952 73.2318 24.952H72.5118C72.3945 24.952 72.3038 24.92 72.2398 24.856C72.1865 24.7813 72.1598 24.696 72.1598 24.6C72.1598 24.44 72.2185 24.2427 72.3358 24.008C72.4638 23.7733 72.6558 23.544 72.9118 23.32C73.1678 23.096 73.4931 22.9093 73.8878 22.76C74.2931 22.6 74.7838 22.52 75.3598 22.52C75.9998 22.52 76.5385 22.6053 76.9758 22.776C77.4131 22.936 77.7545 23.1547 77.9998 23.432C78.2558 23.7093 78.4371 24.024 78.5438 24.376C78.6611 24.728 78.7198 25.0853 78.7198 25.448V30.632C78.7198 30.7387 78.6825 30.8293 78.6078 30.904C78.5438 30.968 78.4585 31 78.3518 31H77.6158C77.4985 31 77.4078 30.968 77.3438 30.904C77.2798 30.8293 77.2478 30.7387 77.2478 30.632V29.944C77.1091 30.136 76.9225 30.328 76.6878 30.52C76.4531 30.7013 76.1598 30.856 75.8078 30.984C75.4558 31.1013 75.0238 31.16 74.5118 31.16ZM74.8478 29.96C75.2851 29.96 75.6851 29.8693 76.0478 29.688C76.4105 29.496 76.6931 29.2027 76.8958 28.808C77.1091 28.4133 77.2158 27.9173 77.2158 27.32V26.872L75.3598 27.144C74.6025 27.2507 74.0318 27.432 73.6478 27.688C73.2638 27.9333 73.0718 28.248 73.0718 28.632C73.0718 28.9307 73.1571 29.1813 73.3278 29.384C73.5091 29.576 73.7331 29.72 73.9998 29.816C74.2771 29.912 74.5598 29.96 74.8478 29.96ZM85.5178 31C85.4005 31 85.3098 30.968 85.2458 30.904C85.1818 30.8293 85.1498 30.7387 85.1498 30.632V20.184C85.1498 20.0667 85.1818 19.976 85.2458 19.912C85.3098 19.8373 85.4005 19.8 85.5178 19.8H92.0458C92.1631 19.8 92.2538 19.8373 92.3178 19.912C92.3818 19.976 92.4138 20.0667 92.4138 20.184V20.824C92.4138 20.9413 92.3818 21.032 92.3178 21.096C92.2538 21.16 92.1631 21.192 92.0458 21.192H86.7018V24.92H91.7258C91.8431 24.92 91.9338 24.9573 91.9978 25.032C92.0618 25.096 92.0938 25.1867 92.0938 25.304V25.944C92.0938 26.0507 92.0618 26.1413 91.9978 26.216C91.9338 26.28 91.8431 26.312 91.7258 26.312H86.7018V30.632C86.7018 30.7387 86.6645 30.8293 86.5898 30.904C86.5258 30.968 86.4351 31 86.3178 31H85.5178ZM94.6536 31C94.5469 31 94.4562 30.968 94.3816 30.904C94.3176 30.8293 94.2856 30.7387 94.2856 30.632V23.048C94.2856 22.9413 94.3176 22.856 94.3816 22.792C94.4562 22.7173 94.5469 22.68 94.6536 22.68H95.4216C95.5282 22.68 95.6136 22.7173 95.6776 22.792C95.7416 22.856 95.7736 22.9413 95.7736 23.048V30.632C95.7736 30.7387 95.7416 30.8293 95.6776 30.904C95.6136 30.968 95.5282 31 95.4216 31H94.6536ZM94.5256 21.128C94.4189 21.128 94.3282 21.096 94.2536 21.032C94.1896 20.9573 94.1576 20.8667 94.1576 20.76V19.896C94.1576 19.7893 94.1896 19.704 94.2536 19.64C94.3282 19.5653 94.4189 19.528 94.5256 19.528H95.5336C95.6402 19.528 95.7256 19.5653 95.7896 19.64C95.8642 19.704 95.9016 19.7893 95.9016 19.896V20.76C95.9016 20.8667 95.8642 20.9573 95.7896 21.032C95.7256 21.096 95.6402 21.128 95.5336 21.128H94.5256ZM98.5446 31C98.4379 31 98.3472 30.968 98.2726 30.904C98.2086 30.8293 98.1766 30.7387 98.1766 30.632V20.008C98.1766 19.9013 98.2086 19.816 98.2726 19.752C98.3472 19.6773 98.4379 19.64 98.5446 19.64H99.2966C99.4139 19.64 99.5046 19.6773 99.5686 19.752C99.6326 19.816 99.6646 19.9013 99.6646 20.008V30.632C99.6646 30.7387 99.6326 30.8293 99.5686 30.904C99.5046 30.968 99.4139 31 99.2966 31H98.5446ZM105.363 31.16C104.265 31.16 103.39 30.824 102.739 30.152C102.089 29.4693 101.731 28.5413 101.667 27.368C101.657 27.2293 101.651 27.0533 101.651 26.84C101.651 26.616 101.657 26.4347 101.667 26.296C101.71 25.5387 101.886 24.8773 102.195 24.312C102.505 23.736 102.926 23.2933 103.459 22.984C104.003 22.6747 104.638 22.52 105.363 22.52C106.174 22.52 106.851 22.6907 107.395 23.032C107.95 23.3733 108.371 23.8587 108.659 24.488C108.947 25.1173 109.091 25.8533 109.091 26.696V26.968C109.091 27.0853 109.054 27.176 108.979 27.24C108.915 27.304 108.83 27.336 108.723 27.336H103.187C103.187 27.3467 103.187 27.368 103.187 27.4C103.187 27.432 103.187 27.4587 103.187 27.48C103.209 27.9173 103.305 28.328 103.475 28.712C103.646 29.0853 103.891 29.3893 104.211 29.624C104.531 29.8587 104.915 29.976 105.363 29.976C105.747 29.976 106.067 29.9173 106.323 29.8C106.579 29.6827 106.787 29.5547 106.947 29.416C107.107 29.2667 107.214 29.1547 107.267 29.08C107.363 28.9413 107.438 28.8613 107.491 28.84C107.545 28.808 107.63 28.792 107.747 28.792H108.515C108.622 28.792 108.707 28.824 108.771 28.888C108.846 28.9413 108.878 29.0213 108.867 29.128C108.857 29.288 108.771 29.4853 108.611 29.72C108.451 29.944 108.222 30.168 107.923 30.392C107.625 30.616 107.262 30.8027 106.835 30.952C106.409 31.0907 105.918 31.16 105.363 31.16ZM103.187 26.232H107.571V26.184C107.571 25.704 107.481 25.2773 107.299 24.904C107.129 24.5307 106.878 24.2373 106.547 24.024C106.217 23.8 105.822 23.688 105.363 23.688C104.905 23.688 104.51 23.8 104.179 24.024C103.859 24.2373 103.614 24.5307 103.443 24.904C103.273 25.2773 103.187 25.704 103.187 26.184V26.232ZM113.884 31.16C113.287 31.16 112.775 31.0853 112.348 30.936C111.922 30.7867 111.575 30.6053 111.308 30.392C111.042 30.1787 110.839 29.9653 110.7 29.752C110.572 29.5387 110.503 29.368 110.492 29.24C110.482 29.1227 110.519 29.032 110.604 28.968C110.69 28.904 110.775 28.872 110.86 28.872H111.564C111.628 28.872 111.676 28.8827 111.708 28.904C111.751 28.9147 111.804 28.9573 111.868 29.032C112.007 29.1813 112.162 29.3307 112.332 29.48C112.503 29.6293 112.711 29.752 112.956 29.848C113.212 29.944 113.527 29.992 113.9 29.992C114.444 29.992 114.892 29.8907 115.244 29.688C115.596 29.4747 115.772 29.1653 115.772 28.76C115.772 28.4933 115.698 28.28 115.548 28.12C115.41 27.96 115.154 27.816 114.78 27.688C114.418 27.56 113.916 27.4267 113.276 27.288C112.636 27.1387 112.13 26.9573 111.756 26.744C111.383 26.52 111.116 26.2587 110.956 25.96C110.796 25.6507 110.716 25.304 110.716 24.92C110.716 24.5253 110.834 24.1467 111.068 23.784C111.303 23.4107 111.644 23.1067 112.092 22.872C112.551 22.6373 113.122 22.52 113.804 22.52C114.359 22.52 114.834 22.5893 115.228 22.728C115.623 22.8667 115.948 23.0427 116.204 23.256C116.46 23.4587 116.652 23.6613 116.78 23.864C116.908 24.0667 116.978 24.2373 116.988 24.376C116.999 24.4827 116.967 24.5733 116.892 24.648C116.818 24.712 116.732 24.744 116.636 24.744H115.964C115.89 24.744 115.826 24.728 115.772 24.696C115.73 24.664 115.687 24.6267 115.644 24.584C115.538 24.4453 115.41 24.3067 115.26 24.168C115.122 24.0293 114.935 23.9173 114.7 23.832C114.476 23.736 114.178 23.688 113.804 23.688C113.271 23.688 112.871 23.8 112.604 24.024C112.338 24.248 112.204 24.5307 112.204 24.872C112.204 25.0747 112.263 25.256 112.38 25.416C112.498 25.576 112.722 25.72 113.052 25.848C113.383 25.976 113.874 26.1147 114.524 26.264C115.228 26.4027 115.783 26.5893 116.188 26.824C116.594 27.0587 116.882 27.3307 117.052 27.64C117.223 27.9493 117.308 28.3067 117.308 28.712C117.308 29.16 117.175 29.5707 116.908 29.944C116.652 30.3173 116.268 30.616 115.756 30.84C115.255 31.0533 114.631 31.16 113.884 31.16Z" fill="#4A2F0B"/>
</svg>
