<svg xmlns="http://www.w3.org/2000/svg" width="867" height="600" viewBox="44 174 867 600" fill="none">
<path d="M260.958 571.886C261.124 579.011 257.472 585.681 251.374 589.387L169.01 639.455C162.877 643.183 155.208 643.345 148.914 639.878L64.0847 593.153C57.8444 589.716 53.9005 583.232 53.728 576.126L51.3798 479.355C51.2061 472.196 54.8862 465.497 61.0259 461.796L143.478 412.091C149.613 408.392 157.267 408.252 163.543 411.724L248.393 458.662C254.621 462.108 258.552 468.591 258.718 475.691L260.958 571.886Z" fill="#FDE68A" fill-opacity="0.25"/>
<path d="M380.498 771.259C380.669 778.398 377.008 785.081 370.894 788.787L288.61 838.669C282.493 842.377 274.853 842.541 268.572 839.099L183.76 792.62C177.498 789.189 173.538 782.693 173.366 775.571L171.028 678.968C170.856 671.822 174.522 665.134 180.643 661.429L263.065 611.534C269.189 607.827 276.837 607.671 283.117 611.125L367.812 657.702C374.061 661.138 378.01 667.628 378.181 674.741L380.498 771.259Z" fill="#FDE68A" fill-opacity="0.25"/>
<path d="M617.869 367.183C618.039 374.33 614.368 381.017 608.244 384.719L525.757 434.583C519.633 438.285 511.989 438.439 505.712 434.985L420.929 388.337C414.677 384.897 410.728 378.4 410.564 371.282L408.34 274.956C408.175 267.821 411.838 261.145 417.95 257.443L500.52 207.424C506.648 203.712 514.303 203.557 520.587 207.017L605.218 253.617C611.463 257.056 615.409 263.546 615.578 270.656L617.869 367.183Z" fill="#FDE68A" fill-opacity="0.25"/>
<path d="M737.448 566.128C737.626 573.251 733.989 579.925 727.902 583.643L645.718 633.845C639.585 637.591 631.905 637.764 625.6 634.299L540.426 587.481C534.165 584.04 530.212 577.532 530.053 570.406L527.904 473.831C527.746 466.693 531.417 460.017 537.536 456.321L619.835 406.603C625.958 402.904 633.598 402.752 639.873 406.203L724.662 452.837C730.903 456.27 734.851 462.749 735.029 469.853L737.448 566.128Z" fill="#FDE68A" fill-opacity="0.25"/>
<path d="M857.188 765.418C857.378 772.555 853.735 779.246 847.632 782.968L765.149 833.28C759.019 837.019 751.345 837.19 745.044 833.728L660.009 786.996C653.743 783.553 649.789 777.04 649.634 769.909L647.536 673.302C647.381 666.165 651.055 659.494 657.173 655.8L739.541 606.076C745.654 602.385 753.28 602.229 759.55 605.666L844.242 652.098C850.488 655.522 854.444 661.996 854.633 669.099L857.188 765.418Z" fill="#FDE68A" fill-opacity="0.25"/>
<path d="M975.885 966.313C976.011 973.459 972.301 980.123 966.156 983.789L882.769 1033.53C876.561 1037.24 868.829 1037.31 862.545 1033.72L779.161 986.088C773.057 982.601 769.229 976.179 769.075 969.167L766.959 872.738C766.802 865.6 770.476 858.925 776.596 855.231L859.216 805.356C865.345 801.656 872.993 801.509 879.269 804.971L963.811 851.598C970.087 855.059 974.035 861.601 974.161 868.751L975.885 966.313Z" fill="#FDE68A" fill-opacity="0.25"/>
<path d="M497.166 566.958C497.334 574.096 493.671 580.776 487.557 584.48L405.089 634.437C398.959 638.15 391.301 638.305 385.017 634.842L300.179 588.095C293.924 584.649 289.978 578.142 289.824 571.018L287.731 474.462C287.576 467.334 291.241 460.67 297.346 456.974L379.54 407.215C385.667 403.506 393.318 403.351 399.6 406.81L484.54 453.571C490.788 457.01 494.734 463.502 494.901 470.615L497.166 566.958Z" fill="#FDE68A" fill-opacity="0.25"/>
<path d="M616.698 766.064C616.873 773.2 613.218 779.882 607.11 783.593L524.64 833.689C518.513 837.411 510.854 837.574 504.564 834.117L419.734 787.484C413.476 784.044 409.524 777.541 409.362 770.417L407.172 673.82C407.011 666.684 410.678 660.008 416.793 656.309L499.13 606.499C505.249 602.798 512.887 602.64 519.164 606.085L603.954 652.627C610.207 656.06 614.162 662.549 614.336 669.664L616.698 766.064Z" fill="#FDE68A" fill-opacity="0.25"/>
<path d="M736.338 965.337C736.524 972.483 732.867 979.178 726.751 982.894L644.241 1033.01C638.11 1036.74 630.446 1036.9 624.154 1033.43L539.187 986.654C532.927 983.207 528.978 976.694 528.826 969.566L526.769 872.957C526.617 865.826 530.288 859.159 536.4 855.467L618.633 805.789C624.747 802.095 632.375 801.938 638.646 805.375L723.447 851.86C729.697 855.286 733.654 861.765 733.838 868.874L736.338 965.337Z" fill="#FDE68A" fill-opacity="0.25"/>
<path d="M1090.93 355.608C1091.11 362.739 1087.46 369.417 1081.35 373.128L999.022 423.211C992.903 426.934 985.251 427.105 978.962 423.659L894.013 377.125C887.742 373.689 883.779 367.181 883.615 360.049L881.395 263.413C881.231 256.272 884.901 249.592 891.021 245.893L973.403 196.091C979.52 192.393 987.155 192.235 993.429 195.678L1078.2 242.193C1084.46 245.625 1088.41 252.117 1088.59 259.234L1090.93 355.608Z" fill="#FDE68A" fill-opacity="0.25"/>
<path d="M853.341 360.576C853.521 367.713 849.869 374.397 843.764 378.112L761.332 428.254C755.203 431.982 747.539 432.148 741.245 428.688L656.337 382.007C650.087 378.571 646.137 372.081 645.966 364.967L643.649 268.468C643.478 261.319 647.149 254.63 653.275 250.926L735.678 201.112C741.794 197.414 749.428 197.257 755.701 200.698L840.532 247.233C846.783 250.662 850.739 257.147 850.918 264.259L853.341 360.576Z" fill="#FDE68A" fill-opacity="0.25"/>
<path d="M972.661 560.237C972.822 567.384 969.143 574.068 963.013 577.763L880.369 627.584C874.242 631.277 866.601 631.422 860.329 627.964L775.912 581.421C769.676 577.982 765.735 571.501 765.563 564.399L763.215 467.815C763.041 460.667 766.71 453.976 772.835 450.271L855.295 400.388C861.422 396.682 869.073 396.529 875.353 399.988L960.118 446.672C966.369 450.115 970.315 456.614 970.477 463.732L972.661 560.237Z" fill="#FDE68A" fill-opacity="0.25"/>
<path d="M1092.06 759.127C1092.23 766.27 1088.56 772.952 1082.44 776.652L1000.01 826.484C993.884 830.185 986.241 830.339 979.965 826.887L895.202 780.267C888.949 776.828 884.999 770.33 884.834 763.212L882.599 666.744C882.434 659.598 886.109 652.912 892.236 649.214L974.765 599.393C980.884 595.699 988.519 595.546 994.791 598.993L1079.45 645.516C1085.71 648.954 1089.66 655.453 1089.82 662.574L1092.06 759.127Z" fill="#FDE68A" fill-opacity="0.25"/>
</svg>