<svg width="40" height="40" viewBox="0 0 40 40" fill="none" xmlns="http://www.w3.org/2000/svg">
<path d="M2.07019e-07 14C9.26855e-08 6.26801 6.26801 3.716e-08 14 8.29992e-08L26 1.54141e-07C33.732 1.99981e-07 40 6.26801 40 14L40 26C40 33.732 33.732 40 26 40L14 40C6.26802 40 4.98797e-07 33.732 3.84463e-07 26L2.07019e-07 14Z" fill="#8A5611"/>
<path d="M14.167 14.5832C14.167 13.8096 14.4743 13.0678 15.0213 12.5208C15.5682 11.9738 16.3101 11.6665 17.0837 11.6665H20.0003V17.4998H17.0837C16.3101 17.4998 15.5682 17.1925 15.0213 16.6456C14.4743 16.0986 14.167 15.3567 14.167 14.5832Z" stroke="white" stroke-width="1.38889" stroke-linecap="round" stroke-linejoin="round"/>
<path d="M20 11.6665H22.9167C23.2997 11.6665 23.679 11.7419 24.0328 11.8885C24.3867 12.0351 24.7082 12.2499 24.9791 12.5208C25.2499 12.7916 25.4647 13.1131 25.6113 13.467C25.7579 13.8209 25.8333 14.2001 25.8333 14.5832C25.8333 14.9662 25.7579 15.3455 25.6113 15.6993C25.4647 16.0532 25.2499 16.3747 24.9791 16.6456C24.7082 16.9164 24.3867 17.1312 24.0328 17.2778C23.679 17.4244 23.2997 17.4998 22.9167 17.4998H20V11.6665Z" stroke="white" stroke-width="1.38889" stroke-linecap="round" stroke-linejoin="round"/>
<path d="M20 20.4167C20 20.0336 20.0754 19.6544 20.222 19.3005C20.3686 18.9466 20.5834 18.6251 20.8543 18.3543C21.1251 18.0834 21.4466 17.8686 21.8005 17.722C22.1544 17.5754 22.5336 17.5 22.9167 17.5C23.2997 17.5 23.679 17.5754 24.0328 17.722C24.3867 17.8686 24.7082 18.0834 24.9791 18.3543C25.2499 18.6251 25.4647 18.9466 25.6113 19.3005C25.7579 19.6544 25.8333 20.0336 25.8333 20.4167C25.8333 20.7997 25.7579 21.179 25.6113 21.5328C25.4647 21.8867 25.2499 22.2082 24.9791 22.4791C24.7082 22.7499 24.3867 22.9647 24.0328 23.1113C23.679 23.2579 23.2997 23.3333 22.9167 23.3333C22.5336 23.3333 22.1544 23.2579 21.8005 23.1113C21.4466 22.9647 21.1251 22.7499 20.8543 22.4791C20.5834 22.2082 20.3686 21.8867 20.222 21.5328C20.0754 21.179 20 20.7997 20 20.4167Z" stroke="white" stroke-width="1.38889" stroke-linecap="round" stroke-linejoin="round"/>
<path d="M14.167 26.2502C14.167 25.4766 14.4743 24.7347 15.0213 24.1878C15.5682 23.6408 16.3101 23.3335 17.0837 23.3335H20.0003V26.2502C20.0003 27.0237 19.693 27.7656 19.1461 28.3126C18.5991 28.8595 17.8572 29.1668 17.0837 29.1668C16.3101 29.1668 15.5682 28.8595 15.0213 28.3126C14.4743 27.7656 14.167 27.0237 14.167 26.2502Z" stroke="white" stroke-width="1.38889" stroke-linecap="round" stroke-linejoin="round"/>
<path d="M14.167 20.4167C14.167 19.6431 14.4743 18.9013 15.0213 18.3543C15.5682 17.8073 16.3101 17.5 17.0837 17.5H20.0003V23.3333H17.0837C16.3101 23.3333 15.5682 23.026 15.0213 22.4791C14.4743 21.9321 14.167 21.1902 14.167 20.4167Z" stroke="white" stroke-width="1.38889" stroke-linecap="round" stroke-linejoin="round"/>
</svg>
