<svg width="117" height="117" viewBox="0 0 117 117" fill="none" xmlns="http://www.w3.org/2000/svg">
<path d="M48.5 5.7735C54.688 2.20085 62.312 2.20085 68.5 5.7735L99.1625 23.4765C105.351 27.0492 109.162 33.6517 109.162 40.797V76.203C109.162 83.3483 105.351 89.9508 99.1625 93.5235L68.5 111.226C62.312 114.799 54.688 114.799 48.5 111.226L17.8375 93.5235C11.6495 89.9508 7.83751 83.3483 7.83751 76.203V40.797C7.83751 33.6517 11.6495 27.0492 17.8375 23.4765L48.5 5.7735Z" fill="#FBB800"/>
<path d="M63.4993 45.6667H55.166L50.9993 50.6667H45.9993C45.1153 50.6667 44.2674 51.0179 43.6423 51.6431C43.0172 52.2682 42.666 53.116 42.666 54.0001V69.0001C42.666 69.8841 43.0172 70.732 43.6423 71.3571C44.2674 71.9822 45.1153 72.3334 45.9993 72.3334H72.666C73.5501 72.3334 74.3979 71.9822 75.023 71.3571C75.6482 70.732 75.9993 69.8841 75.9993 69.0001V54.0001C75.9993 53.116 75.6482 52.2682 75.023 51.6431C74.3979 51.0179 73.5501 50.6667 72.666 50.6667H67.666L63.4993 45.6667Z" stroke="#8A5611" stroke-width="3.33333" stroke-linecap="round" stroke-linejoin="round"/>
<path d="M59.333 65.6667C62.0944 65.6667 64.333 63.4282 64.333 60.6667C64.333 57.9053 62.0944 55.6667 59.333 55.6667C56.5716 55.6667 54.333 57.9053 54.333 60.6667C54.333 63.4282 56.5716 65.6667 59.333 65.6667Z" stroke="#8A5611" stroke-width="3.33333" stroke-linecap="round" stroke-linejoin="round"/>
</svg>
