<svg width="117" height="117" viewBox="0 0 117 117" fill="none" xmlns="http://www.w3.org/2000/svg">
<path d="M48.5 5.7735C54.688 2.20085 62.312 2.20085 68.5 5.7735L99.1625 23.4765C105.351 27.0492 109.162 33.6517 109.162 40.797V76.203C109.162 83.3483 105.351 89.9508 99.1625 93.5235L68.5 111.226C62.312 114.799 54.688 114.799 48.5 111.226L17.8375 93.5235C11.6495 89.9508 7.83751 83.3483 7.83751 76.203V40.797C7.83751 33.6517 11.6495 27.0492 17.8375 23.4765L48.5 5.7735Z" fill="#FBB800"/>
<path d="M64.722 74V70.6667C64.722 68.8986 64.0196 67.2029 62.7694 65.9526C61.5191 64.7024 59.8234 64 58.0553 64H48.0553C46.2872 64 44.5915 64.7024 43.3413 65.9526C42.0911 67.2029 41.3887 68.8986 41.3887 70.6667V74" stroke="#8A5611" stroke-width="3.33333" stroke-linecap="round" stroke-linejoin="round"/>
<path d="M53.0553 57.3333C56.7372 57.3333 59.722 54.3486 59.722 50.6667C59.722 46.9848 56.7372 44 53.0553 44C49.3734 44 46.3887 46.9848 46.3887 50.6667C46.3887 54.3486 49.3734 57.3333 53.0553 57.3333Z" stroke="#8A5611" stroke-width="3.33333" stroke-linecap="round" stroke-linejoin="round"/>
<path d="M74.7227 73.9999V70.6666C74.7216 69.1894 74.2299 67.7545 73.3249 66.5871C72.4199 65.4196 71.1529 64.5858 69.7227 64.2166" stroke="#8A5611" stroke-width="3.33333" stroke-linecap="round" stroke-linejoin="round"/>
<path d="M64.7227 44.2166C66.1567 44.5837 67.4277 45.4177 68.3354 46.5871C69.2431 47.7564 69.7357 49.1946 69.7357 50.6749C69.7357 52.1552 69.2431 53.5934 68.3354 54.7627C67.4277 55.9321 66.1567 56.7661 64.7227 57.1332" stroke="#8A5611" stroke-width="3.33333" stroke-linecap="round" stroke-linejoin="round"/>
</svg>
