<svg width="117" height="117" viewBox="0 0 117 117" fill="none" xmlns="http://www.w3.org/2000/svg">
<path d="M48.5 5.7735C54.688 2.20085 62.312 2.20085 68.5 5.7735L99.1625 23.4765C105.351 27.0492 109.162 33.6517 109.162 40.797V76.203C109.162 83.3483 105.351 89.9508 99.1625 93.5235L68.5 111.226C62.312 114.799 54.688 114.799 48.5 111.226L17.8375 93.5235C11.6495 89.9508 7.83751 83.3483 7.83751 76.203V40.797C7.83751 33.6517 11.6495 27.0492 17.8375 23.4765L48.5 5.7735Z" fill="#FBB800"/>
<path d="M62.7776 49.4999C62.4722 49.8114 62.3012 50.2303 62.3012 50.6666C62.3012 51.1028 62.4722 51.5217 62.7776 51.8332L65.4443 54.4999C65.7558 54.8053 66.1747 54.9763 66.6109 54.9763C67.0472 54.9763 67.466 54.8053 67.7776 54.4999L74.0609 48.2166C74.899 50.0685 75.1527 52.1319 74.7884 54.1318C74.424 56.1316 73.4588 57.973 72.0214 59.4103C70.584 60.8477 68.7427 61.8129 66.7428 62.1773C64.743 62.5417 62.6796 62.2879 60.8276 61.4499L49.3109 72.9665C48.6479 73.6296 47.7486 74.0021 46.8109 74.0021C45.8732 74.0021 44.974 73.6296 44.3109 72.9665C43.6479 72.3035 43.2754 71.4042 43.2754 70.4665C43.2754 69.5289 43.6479 68.6296 44.3109 67.9666L55.8276 56.4499C54.9895 54.5979 54.7358 52.5345 55.1002 50.5346C55.4645 48.5348 56.4297 46.6935 57.8671 45.2561C59.3045 43.8187 61.1458 42.8535 63.1457 42.4891C65.1455 42.1247 67.2089 42.3785 69.0609 43.2166L62.7943 49.4832L62.7776 49.4999Z" stroke="#8A5611" stroke-width="3.33333" stroke-linecap="round" stroke-linejoin="round"/>
</svg>
