<svg width="315" height="51" viewBox="0 0 315 51" fill="none" xmlns="http://www.w3.org/2000/svg">
<path d="M0 10C0 4.47715 4.47715 0 10 0H305C310.523 0 315 4.47715 315 10V41C315 46.5228 310.523 51 305 51H10C4.47715 51 0 46.5228 0 41V10Z" fill="#4A2F0B"/>
<path d="M99.0547 30.15C98.1247 30.15 97.3447 30.015 96.7147 29.745C96.0947 29.465 95.6197 29.105 95.2897 28.665C94.9697 28.215 94.7997 27.745 94.7797 27.255C94.7797 27.165 94.8097 27.09 94.8697 27.03C94.9297 26.97 95.0047 26.94 95.0947 26.94H96.4297C96.5597 26.94 96.6547 26.97 96.7147 27.03C96.7847 27.08 96.8447 27.145 96.8947 27.225C96.9547 27.415 97.0697 27.605 97.2397 27.795C97.4097 27.975 97.6397 28.125 97.9297 28.245C98.2297 28.365 98.6047 28.425 99.0547 28.425C99.7747 28.425 100.31 28.305 100.66 28.065C101.02 27.825 101.2 27.5 101.2 27.09C101.2 26.8 101.105 26.57 100.915 26.4C100.725 26.22 100.43 26.06 100.03 25.92C99.6397 25.77 99.1197 25.615 98.4697 25.455C97.7197 25.275 97.0897 25.06 96.5797 24.81C96.0797 24.55 95.6997 24.225 95.4397 23.835C95.1897 23.445 95.0647 22.95 95.0647 22.35C95.0647 21.77 95.2197 21.255 95.5297 20.805C95.8497 20.355 96.2997 20 96.8797 19.74C97.4697 19.48 98.1697 19.35 98.9797 19.35C99.6297 19.35 100.205 19.44 100.705 19.62C101.205 19.79 101.62 20.02 101.95 20.31C102.28 20.59 102.53 20.895 102.7 21.225C102.88 21.545 102.975 21.86 102.985 22.17C102.985 22.25 102.955 22.325 102.895 22.395C102.845 22.455 102.77 22.485 102.67 22.485H101.275C101.195 22.485 101.115 22.465 101.035 22.425C100.955 22.385 100.89 22.31 100.84 22.2C100.78 21.89 100.585 21.625 100.255 21.405C99.9247 21.185 99.4997 21.075 98.9797 21.075C98.4397 21.075 98.0047 21.175 97.6747 21.375C97.3447 21.575 97.1797 21.885 97.1797 22.305C97.1797 22.585 97.2597 22.82 97.4197 23.01C97.5897 23.19 97.8547 23.35 98.2147 23.49C98.5847 23.63 99.0697 23.78 99.6697 23.94C100.52 24.13 101.215 24.35 101.755 24.6C102.295 24.85 102.69 25.17 102.94 25.56C103.19 25.94 103.315 26.425 103.315 27.015C103.315 27.675 103.135 28.24 102.775 28.71C102.425 29.17 101.93 29.525 101.29 29.775C100.65 30.025 99.9047 30.15 99.0547 30.15ZM108.214 30.15C107.104 30.15 106.224 29.83 105.574 29.19C104.924 28.55 104.574 27.64 104.524 26.46C104.514 26.36 104.509 26.235 104.509 26.085C104.509 25.925 104.514 25.8 104.524 25.71C104.564 24.95 104.734 24.3 105.034 23.76C105.344 23.21 105.769 22.79 106.309 22.5C106.849 22.2 107.484 22.05 108.214 22.05C109.024 22.05 109.704 22.22 110.254 22.56C110.804 22.89 111.219 23.355 111.499 23.955C111.779 24.545 111.919 25.23 111.919 26.01V26.325C111.919 26.425 111.884 26.51 111.814 26.58C111.744 26.65 111.654 26.685 111.544 26.685H106.564C106.564 26.685 106.564 26.7 106.564 26.73C106.564 26.76 106.564 26.785 106.564 26.805C106.574 27.155 106.639 27.48 106.759 27.78C106.889 28.07 107.074 28.305 107.314 28.485C107.564 28.665 107.859 28.755 108.199 28.755C108.479 28.755 108.714 28.715 108.904 28.635C109.094 28.545 109.249 28.445 109.369 28.335C109.489 28.225 109.574 28.135 109.624 28.065C109.714 27.945 109.784 27.875 109.834 27.855C109.894 27.825 109.979 27.81 110.089 27.81H111.379C111.479 27.81 111.559 27.84 111.619 27.9C111.689 27.96 111.719 28.035 111.709 28.125C111.699 28.285 111.614 28.48 111.454 28.71C111.304 28.94 111.084 29.165 110.794 29.385C110.504 29.605 110.139 29.79 109.699 29.94C109.269 30.08 108.774 30.15 108.214 30.15ZM106.564 25.425H109.879V25.38C109.879 24.99 109.814 24.65 109.684 24.36C109.554 24.06 109.364 23.83 109.114 23.67C108.864 23.5 108.564 23.415 108.214 23.415C107.864 23.415 107.564 23.5 107.314 23.67C107.064 23.83 106.874 24.06 106.744 24.36C106.624 24.65 106.564 24.99 106.564 25.38V25.425ZM113.871 30C113.771 30 113.686 29.965 113.616 29.895C113.546 29.825 113.511 29.74 113.511 29.64V22.56C113.511 22.46 113.546 22.375 113.616 22.305C113.686 22.235 113.771 22.2 113.871 22.2H115.101C115.201 22.2 115.286 22.235 115.356 22.305C115.426 22.375 115.461 22.46 115.461 22.56V23.175C115.721 22.855 116.051 22.59 116.451 22.38C116.861 22.16 117.366 22.05 117.966 22.05C118.576 22.05 119.106 22.19 119.556 22.47C120.006 22.74 120.351 23.125 120.591 23.625C120.841 24.125 120.966 24.725 120.966 25.425V29.64C120.966 29.74 120.931 29.825 120.861 29.895C120.791 29.965 120.706 30 120.606 30H119.286C119.186 30 119.101 29.965 119.031 29.895C118.961 29.825 118.926 29.74 118.926 29.64V25.515C118.926 24.935 118.781 24.48 118.491 24.15C118.211 23.82 117.801 23.655 117.261 23.655C116.741 23.655 116.326 23.82 116.016 24.15C115.706 24.48 115.551 24.935 115.551 25.515V29.64C115.551 29.74 115.516 29.825 115.446 29.895C115.376 29.965 115.291 30 115.191 30H113.871ZM125.766 30.15C125.246 30.15 124.786 30.065 124.386 29.895C123.996 29.715 123.671 29.465 123.411 29.145C123.151 28.825 122.951 28.45 122.811 28.02C122.671 27.58 122.591 27.1 122.571 26.58C122.561 26.4 122.556 26.24 122.556 26.1C122.556 25.95 122.561 25.785 122.571 25.605C122.591 25.105 122.666 24.64 122.796 24.21C122.936 23.78 123.136 23.405 123.396 23.085C123.666 22.755 123.996 22.5 124.386 22.32C124.786 22.14 125.246 22.05 125.766 22.05C126.306 22.05 126.761 22.145 127.131 22.335C127.511 22.515 127.826 22.75 128.076 23.04V19.71C128.076 19.61 128.106 19.525 128.166 19.455C128.236 19.385 128.326 19.35 128.436 19.35H129.711C129.811 19.35 129.896 19.385 129.966 19.455C130.036 19.525 130.071 19.61 130.071 19.71V29.64C130.071 29.74 130.036 29.825 129.966 29.895C129.896 29.965 129.811 30 129.711 30H128.526C128.416 30 128.326 29.965 128.256 29.895C128.196 29.825 128.166 29.74 128.166 29.64V29.085C127.916 29.395 127.596 29.65 127.206 29.85C126.826 30.05 126.346 30.15 125.766 30.15ZM126.321 28.545C126.741 28.545 127.076 28.45 127.326 28.26C127.576 28.07 127.761 27.83 127.881 27.54C128.001 27.24 128.066 26.935 128.076 26.625C128.086 26.445 128.091 26.255 128.091 26.055C128.091 25.845 128.086 25.65 128.076 25.47C128.066 25.17 127.996 24.885 127.866 24.615C127.736 24.335 127.546 24.105 127.296 23.925C127.046 23.745 126.721 23.655 126.321 23.655C125.901 23.655 125.566 23.75 125.316 23.94C125.076 24.12 124.901 24.36 124.791 24.66C124.681 24.96 124.616 25.29 124.596 25.65C124.586 25.95 124.586 26.25 124.596 26.55C124.616 26.91 124.681 27.24 124.791 27.54C124.901 27.84 125.076 28.085 125.316 28.275C125.566 28.455 125.901 28.545 126.321 28.545ZM136.053 30C135.943 30 135.853 29.965 135.783 29.895C135.713 29.825 135.678 29.74 135.678 29.64V19.875C135.678 19.765 135.713 19.675 135.783 19.605C135.853 19.535 135.943 19.5 136.053 19.5H137.238C137.378 19.5 137.483 19.54 137.553 19.62C137.623 19.69 137.668 19.745 137.688 19.785L140.583 25.185L143.508 19.785C143.528 19.745 143.573 19.69 143.643 19.62C143.713 19.54 143.818 19.5 143.958 19.5H145.128C145.238 19.5 145.328 19.535 145.398 19.605C145.468 19.675 145.503 19.765 145.503 19.875V29.64C145.503 29.74 145.468 29.825 145.398 29.895C145.328 29.965 145.238 30 145.128 30H143.868C143.758 30 143.668 29.965 143.598 29.895C143.538 29.825 143.508 29.74 143.508 29.64V23.145L141.408 27.15C141.358 27.24 141.293 27.32 141.213 27.39C141.133 27.45 141.028 27.48 140.898 27.48H140.283C140.143 27.48 140.033 27.45 139.953 27.39C139.883 27.32 139.823 27.24 139.773 27.15L137.673 23.145V29.64C137.673 29.74 137.638 29.825 137.568 29.895C137.498 29.965 137.413 30 137.313 30H136.053ZM151.017 30.15C149.907 30.15 149.027 29.83 148.377 29.19C147.727 28.55 147.377 27.64 147.327 26.46C147.317 26.36 147.312 26.235 147.312 26.085C147.312 25.925 147.317 25.8 147.327 25.71C147.367 24.95 147.537 24.3 147.837 23.76C148.147 23.21 148.572 22.79 149.112 22.5C149.652 22.2 150.287 22.05 151.017 22.05C151.827 22.05 152.507 22.22 153.057 22.56C153.607 22.89 154.022 23.355 154.302 23.955C154.582 24.545 154.722 25.23 154.722 26.01V26.325C154.722 26.425 154.687 26.51 154.617 26.58C154.547 26.65 154.457 26.685 154.347 26.685H149.367C149.367 26.685 149.367 26.7 149.367 26.73C149.367 26.76 149.367 26.785 149.367 26.805C149.377 27.155 149.442 27.48 149.562 27.78C149.692 28.07 149.877 28.305 150.117 28.485C150.367 28.665 150.662 28.755 151.002 28.755C151.282 28.755 151.517 28.715 151.707 28.635C151.897 28.545 152.052 28.445 152.172 28.335C152.292 28.225 152.377 28.135 152.427 28.065C152.517 27.945 152.587 27.875 152.637 27.855C152.697 27.825 152.782 27.81 152.892 27.81H154.182C154.282 27.81 154.362 27.84 154.422 27.9C154.492 27.96 154.522 28.035 154.512 28.125C154.502 28.285 154.417 28.48 154.257 28.71C154.107 28.94 153.887 29.165 153.597 29.385C153.307 29.605 152.942 29.79 152.502 29.94C152.072 30.08 151.577 30.15 151.017 30.15ZM149.367 25.425H152.682V25.38C152.682 24.99 152.617 24.65 152.487 24.36C152.357 24.06 152.167 23.83 151.917 23.67C151.667 23.5 151.367 23.415 151.017 23.415C150.667 23.415 150.367 23.5 150.117 23.67C149.867 23.83 149.677 24.06 149.547 24.36C149.427 24.65 149.367 24.99 149.367 25.38V25.425ZM159.269 30.15C158.669 30.15 158.154 30.08 157.724 29.94C157.304 29.8 156.959 29.625 156.689 29.415C156.419 29.205 156.219 28.995 156.089 28.785C155.959 28.575 155.889 28.4 155.879 28.26C155.869 28.15 155.899 28.065 155.969 28.005C156.049 27.935 156.134 27.9 156.224 27.9H157.409C157.449 27.9 157.484 27.905 157.514 27.915C157.544 27.925 157.584 27.955 157.634 28.005C157.764 28.115 157.899 28.23 158.039 28.35C158.189 28.47 158.364 28.575 158.564 28.665C158.764 28.745 159.014 28.785 159.314 28.785C159.704 28.785 160.029 28.71 160.289 28.56C160.559 28.4 160.694 28.175 160.694 27.885C160.694 27.675 160.634 27.505 160.514 27.375C160.404 27.245 160.194 27.13 159.884 27.03C159.574 26.92 159.134 26.805 158.564 26.685C158.004 26.555 157.539 26.39 157.169 26.19C156.799 25.99 156.524 25.74 156.344 25.44C156.164 25.14 156.074 24.79 156.074 24.39C156.074 24 156.189 23.63 156.419 23.28C156.659 22.92 157.009 22.625 157.469 22.395C157.939 22.165 158.519 22.05 159.209 22.05C159.749 22.05 160.219 22.12 160.619 22.26C161.019 22.39 161.349 22.555 161.609 22.755C161.879 22.955 162.084 23.16 162.224 23.37C162.364 23.57 162.439 23.745 162.449 23.895C162.459 24.005 162.429 24.095 162.359 24.165C162.289 24.225 162.209 24.255 162.119 24.255H161.009C160.959 24.255 160.914 24.245 160.874 24.225C160.834 24.205 160.794 24.18 160.754 24.15C160.644 24.05 160.524 23.945 160.394 23.835C160.264 23.715 160.104 23.615 159.914 23.535C159.734 23.455 159.494 23.415 159.194 23.415C158.814 23.415 158.524 23.5 158.324 23.67C158.124 23.83 158.024 24.035 158.024 24.285C158.024 24.455 158.069 24.605 158.159 24.735C158.259 24.855 158.454 24.97 158.744 25.08C159.034 25.19 159.474 25.305 160.064 25.425C160.734 25.545 161.264 25.725 161.654 25.965C162.054 26.195 162.334 26.465 162.494 26.775C162.664 27.075 162.749 27.41 162.749 27.78C162.749 28.23 162.614 28.635 162.344 28.995C162.084 29.355 161.694 29.64 161.174 29.85C160.664 30.05 160.029 30.15 159.269 30.15ZM167.252 30.15C166.652 30.15 166.137 30.08 165.707 29.94C165.287 29.8 164.942 29.625 164.672 29.415C164.402 29.205 164.202 28.995 164.072 28.785C163.942 28.575 163.872 28.4 163.862 28.26C163.852 28.15 163.882 28.065 163.952 28.005C164.032 27.935 164.117 27.9 164.207 27.9H165.392C165.432 27.9 165.467 27.905 165.497 27.915C165.527 27.925 165.567 27.955 165.617 28.005C165.747 28.115 165.882 28.23 166.022 28.35C166.172 28.47 166.347 28.575 166.547 28.665C166.747 28.745 166.997 28.785 167.297 28.785C167.687 28.785 168.012 28.71 168.272 28.56C168.542 28.4 168.677 28.175 168.677 27.885C168.677 27.675 168.617 27.505 168.497 27.375C168.387 27.245 168.177 27.13 167.867 27.03C167.557 26.92 167.117 26.805 166.547 26.685C165.987 26.555 165.522 26.39 165.152 26.19C164.782 25.99 164.507 25.74 164.327 25.44C164.147 25.14 164.057 24.79 164.057 24.39C164.057 24 164.172 23.63 164.402 23.28C164.642 22.92 164.992 22.625 165.452 22.395C165.922 22.165 166.502 22.05 167.192 22.05C167.732 22.05 168.202 22.12 168.602 22.26C169.002 22.39 169.332 22.555 169.592 22.755C169.862 22.955 170.067 23.16 170.207 23.37C170.347 23.57 170.422 23.745 170.432 23.895C170.442 24.005 170.412 24.095 170.342 24.165C170.272 24.225 170.192 24.255 170.102 24.255H168.992C168.942 24.255 168.897 24.245 168.857 24.225C168.817 24.205 168.777 24.18 168.737 24.15C168.627 24.05 168.507 23.945 168.377 23.835C168.247 23.715 168.087 23.615 167.897 23.535C167.717 23.455 167.477 23.415 167.177 23.415C166.797 23.415 166.507 23.5 166.307 23.67C166.107 23.83 166.007 24.035 166.007 24.285C166.007 24.455 166.052 24.605 166.142 24.735C166.242 24.855 166.437 24.97 166.727 25.08C167.017 25.19 167.457 25.305 168.047 25.425C168.717 25.545 169.247 25.725 169.637 25.965C170.037 26.195 170.317 26.465 170.477 26.775C170.647 27.075 170.732 27.41 170.732 27.78C170.732 28.23 170.597 28.635 170.327 28.995C170.067 29.355 169.677 29.64 169.157 29.85C168.647 30.05 168.012 30.15 167.252 30.15ZM174.546 30.15C174.026 30.15 173.556 30.05 173.136 29.85C172.716 29.64 172.381 29.365 172.131 29.025C171.891 28.675 171.771 28.285 171.771 27.855C171.771 27.155 172.056 26.6 172.626 26.19C173.196 25.77 173.941 25.49 174.861 25.35L176.916 25.05V24.735C176.916 24.315 176.811 23.99 176.601 23.76C176.391 23.53 176.031 23.415 175.521 23.415C175.161 23.415 174.866 23.49 174.636 23.64C174.416 23.78 174.251 23.97 174.141 24.21C174.061 24.34 173.946 24.405 173.796 24.405H172.611C172.501 24.405 172.416 24.375 172.356 24.315C172.306 24.255 172.281 24.175 172.281 24.075C172.291 23.915 172.356 23.72 172.476 23.49C172.606 23.26 172.796 23.04 173.046 22.83C173.306 22.61 173.641 22.425 174.051 22.275C174.461 22.125 174.956 22.05 175.536 22.05C176.166 22.05 176.696 22.13 177.126 22.29C177.566 22.44 177.916 22.645 178.176 22.905C178.436 23.165 178.626 23.47 178.746 23.82C178.866 24.17 178.926 24.54 178.926 24.93V29.64C178.926 29.74 178.891 29.825 178.821 29.895C178.751 29.965 178.666 30 178.566 30H177.351C177.241 30 177.151 29.965 177.081 29.895C177.021 29.825 176.991 29.74 176.991 29.64V29.055C176.861 29.235 176.686 29.41 176.466 29.58C176.246 29.75 175.976 29.89 175.656 30C175.346 30.1 174.976 30.15 174.546 30.15ZM175.056 28.725C175.406 28.725 175.721 28.65 176.001 28.5C176.291 28.35 176.516 28.12 176.676 27.81C176.846 27.49 176.931 27.09 176.931 26.61V26.295L175.431 26.535C174.841 26.625 174.401 26.77 174.111 26.97C173.821 27.17 173.676 27.415 173.676 27.705C173.676 27.925 173.741 28.115 173.871 28.275C174.011 28.425 174.186 28.54 174.396 28.62C174.606 28.69 174.826 28.725 175.056 28.725ZM184.375 33.3C183.645 33.3 183.045 33.205 182.575 33.015C182.105 32.825 181.735 32.595 181.465 32.325C181.195 32.055 181 31.785 180.88 31.515C180.77 31.255 180.71 31.05 180.7 30.9C180.69 30.8 180.72 30.71 180.79 30.63C180.87 30.56 180.96 30.525 181.06 30.525H182.365C182.465 30.525 182.545 30.545 182.605 30.585C182.665 30.635 182.715 30.72 182.755 30.84C182.815 30.97 182.895 31.11 182.995 31.26C183.095 31.41 183.245 31.535 183.445 31.635C183.655 31.745 183.94 31.8 184.3 31.8C184.68 31.8 185 31.745 185.26 31.635C185.52 31.525 185.715 31.34 185.845 31.08C185.985 30.82 186.055 30.46 186.055 30V28.98C185.815 29.27 185.505 29.505 185.125 29.685C184.755 29.865 184.295 29.955 183.745 29.955C183.215 29.955 182.75 29.87 182.35 29.7C181.96 29.52 181.635 29.275 181.375 28.965C181.115 28.645 180.915 28.27 180.775 27.84C180.645 27.41 180.57 26.935 180.55 26.415C180.54 26.145 180.54 25.875 180.55 25.605C180.57 25.105 180.645 24.64 180.775 24.21C180.915 23.78 181.115 23.405 181.375 23.085C181.635 22.755 181.96 22.5 182.35 22.32C182.75 22.14 183.215 22.05 183.745 22.05C184.315 22.05 184.795 22.16 185.185 22.38C185.575 22.59 185.895 22.855 186.145 23.175V22.575C186.145 22.465 186.18 22.375 186.25 22.305C186.32 22.235 186.405 22.2 186.505 22.2H187.72C187.82 22.2 187.905 22.235 187.975 22.305C188.045 22.375 188.08 22.465 188.08 22.575L188.095 29.805C188.095 30.525 187.96 31.145 187.69 31.665C187.42 32.185 187.01 32.585 186.46 32.865C185.92 33.155 185.225 33.3 184.375 33.3ZM184.3 28.365C184.71 28.365 185.04 28.275 185.29 28.095C185.54 27.915 185.725 27.68 185.845 27.39C185.965 27.1 186.035 26.805 186.055 26.505C186.065 26.375 186.07 26.21 186.07 26.01C186.07 25.81 186.065 25.65 186.055 25.53C186.035 25.22 185.965 24.925 185.845 24.645C185.725 24.355 185.54 24.12 185.29 23.94C185.04 23.75 184.71 23.655 184.3 23.655C183.89 23.655 183.56 23.75 183.31 23.94C183.06 24.12 182.88 24.36 182.77 24.66C182.67 24.96 182.61 25.29 182.59 25.65C182.57 25.89 182.57 26.135 182.59 26.385C182.61 26.735 182.67 27.065 182.77 27.375C182.88 27.675 183.06 27.915 183.31 28.095C183.56 28.275 183.89 28.365 184.3 28.365ZM193.453 30.15C192.343 30.15 191.463 29.83 190.813 29.19C190.163 28.55 189.813 27.64 189.763 26.46C189.753 26.36 189.748 26.235 189.748 26.085C189.748 25.925 189.753 25.8 189.763 25.71C189.803 24.95 189.973 24.3 190.273 23.76C190.583 23.21 191.008 22.79 191.548 22.5C192.088 22.2 192.723 22.05 193.453 22.05C194.263 22.05 194.943 22.22 195.493 22.56C196.043 22.89 196.458 23.355 196.738 23.955C197.018 24.545 197.158 25.23 197.158 26.01V26.325C197.158 26.425 197.123 26.51 197.053 26.58C196.983 26.65 196.893 26.685 196.783 26.685H191.803C191.803 26.685 191.803 26.7 191.803 26.73C191.803 26.76 191.803 26.785 191.803 26.805C191.813 27.155 191.878 27.48 191.998 27.78C192.128 28.07 192.313 28.305 192.553 28.485C192.803 28.665 193.098 28.755 193.438 28.755C193.718 28.755 193.953 28.715 194.143 28.635C194.333 28.545 194.488 28.445 194.608 28.335C194.728 28.225 194.813 28.135 194.863 28.065C194.953 27.945 195.023 27.875 195.073 27.855C195.133 27.825 195.218 27.81 195.328 27.81H196.618C196.718 27.81 196.798 27.84 196.858 27.9C196.928 27.96 196.958 28.035 196.948 28.125C196.938 28.285 196.853 28.48 196.693 28.71C196.543 28.94 196.323 29.165 196.033 29.385C195.743 29.605 195.378 29.79 194.938 29.94C194.508 30.08 194.013 30.15 193.453 30.15ZM191.803 25.425H195.118V25.38C195.118 24.99 195.053 24.65 194.923 24.36C194.793 24.06 194.603 23.83 194.353 23.67C194.103 23.5 193.803 23.415 193.453 23.415C193.103 23.415 192.803 23.5 192.553 23.67C192.303 23.83 192.113 24.06 191.983 24.36C191.863 24.65 191.803 24.99 191.803 25.38V25.425Z" fill="white"/>
<g clip-path="url(#clip0_355_2602)">
<path d="M215.085 31.5534C215.109 31.6125 215.15 31.663 215.203 31.6981C215.256 31.7331 215.319 31.751 215.383 31.7494C215.447 31.7478 215.508 31.7267 215.56 31.6889C215.611 31.6512 215.65 31.5987 215.671 31.5384L219.733 19.6634C219.753 19.608 219.757 19.548 219.744 19.4906C219.731 19.4331 219.702 19.3805 219.661 19.3388C219.619 19.2972 219.566 19.2683 219.509 19.2555C219.451 19.2427 219.392 19.2465 219.336 19.2665L207.461 23.329C207.401 23.3497 207.348 23.3883 207.311 23.4397C207.273 23.4911 207.252 23.5528 207.25 23.6166C207.248 23.6803 207.266 23.743 207.301 23.7963C207.336 23.8496 207.387 23.8909 207.446 23.9146L212.402 25.9021C212.559 25.9648 212.701 26.0586 212.821 26.1779C212.94 26.2971 213.034 26.4393 213.097 26.5959L215.085 31.5534Z" stroke="white" stroke-width="1.25" stroke-linecap="round" stroke-linejoin="round"/>
<path d="M219.659 19.3418L212.821 26.1787" stroke="white" stroke-width="1.25" stroke-linecap="round" stroke-linejoin="round"/>
</g>
<defs>
<clipPath id="clip0_355_2602">
<rect width="15" height="15" fill="white" transform="translate(206 18)"/>
</clipPath>
</defs>
</svg>
