<svg width="40" height="40" viewBox="0 0 40 40" fill="none" xmlns="http://www.w3.org/2000/svg">
<path d="M2.07019e-07 14C9.26855e-08 6.26801 6.26801 3.716e-08 14 8.29992e-08L26 1.54141e-07C33.732 1.99981e-07 40 6.26801 40 14L40 26C40 33.732 33.732 40 26 40L14 40C6.26802 40 4.98797e-07 33.732 3.84463e-07 26L2.07019e-07 14Z" fill="#8A5611"/>
<path d="M22.5005 28.3332V24.9998C22.6164 23.9559 22.3171 22.9083 21.6671 22.0832C24.1671 22.0832 26.6671 20.4165 26.6671 17.4998C26.7338 16.4582 26.4421 15.4332 25.8338 14.5832C26.0671 13.6248 26.0671 12.6248 25.8338 11.6665C25.8338 11.6665 25.0005 11.6665 23.3338 12.9165C21.1338 12.4998 18.8671 12.4998 16.6671 12.9165C15.0005 11.6665 14.1671 11.6665 14.1671 11.6665C13.9171 12.6248 13.9171 13.6248 14.1671 14.5832C13.5604 15.4297 13.2659 16.4605 13.3338 17.4998C13.3338 20.4165 15.8338 22.0832 18.3338 22.0832C18.0088 22.4915 17.7671 22.9582 17.6255 23.4582C17.4838 23.9582 17.4421 24.4832 17.5005 24.9998V28.3332" stroke="white" stroke-width="1.38889" stroke-linecap="round" stroke-linejoin="round"/>
<path d="M17.5003 25.0002C13.742 26.6668 13.3337 23.3335 11.667 23.3335" stroke="white" stroke-width="1.38889" stroke-linecap="round" stroke-linejoin="round"/>
</svg>
