<svg width="40" height="40" viewBox="0 0 40 40" fill="none" xmlns="http://www.w3.org/2000/svg">
<path d="M2.07019e-07 14C9.26855e-08 6.26801 6.26801 3.716e-08 14 8.29992e-08L26 1.54141e-07C33.732 1.99981e-07 40 6.26801 40 14L40 26C40 33.732 33.732 40 26 40L14 40C6.26802 40 4.98797e-07 33.732 3.84463e-07 26L2.07019e-07 14Z" fill="black"/>
<path d="M22.5005 28.3337V25.0003C22.6164 23.9564 22.3171 22.9088 21.6671 22.0837C24.1671 22.0837 26.6671 20.417 26.6671 17.5003C26.7338 16.4587 26.4421 15.4337 25.8338 14.5837C26.0671 13.6253 26.0671 12.6253 25.8338 11.667C25.8338 11.667 25.0005 11.667 23.3338 12.917C21.1338 12.5003 18.8671 12.5003 16.6671 12.917C15.0005 11.667 14.1671 11.667 14.1671 11.667C13.9171 12.6253 13.9171 13.6253 14.1671 14.5837C13.5604 15.4302 13.2659 16.461 13.3338 17.5003C13.3338 20.417 15.8338 22.0837 18.3338 22.0837C18.0088 22.492 17.7671 22.9587 17.6255 23.4587C17.4838 23.9587 17.4421 24.4837 17.5005 25.0003V28.3337" stroke="white" stroke-width="1.38889" stroke-linecap="round" stroke-linejoin="round"/>
<path d="M17.5003 24.9997C13.742 26.6663 13.3337 23.333 11.667 23.333" stroke="white" stroke-width="1.38889" stroke-linecap="round" stroke-linejoin="round"/>
</svg>
