<svg width="48" height="48" viewBox="0 0 48 48" fill="none" xmlns="http://www.w3.org/2000/svg">
<path d="M21 1.73205C22.8564 0.660254 25.1436 0.660254 27 1.73205L41.7846 10.2679C43.641 11.3397 44.7846 13.3205 44.7846 15.4641V32.5359C44.7846 34.6795 43.641 36.6603 41.7846 37.7321L27 46.2679C25.1436 47.3397 22.8564 47.3397 21 46.2679L6.21539 37.7321C4.35899 36.6603 3.21539 34.6795 3.21539 32.5359V15.4641C3.21539 13.3205 4.35898 11.3397 6.21539 10.2679L21 1.73205Z" fill="#4A2F0B"/>
<path d="M33 27C33 27.5304 32.7893 28.0391 32.4142 28.4142C32.0391 28.7893 31.5304 29 31 29H19L15 33V17C15 16.4696 15.2107 15.9609 15.5858 15.5858C15.9609 15.2107 16.4696 15 17 15H31C31.5304 15 32.0391 15.2107 32.4142 15.5858C32.7893 15.9609 33 16.4696 33 17V27Z" stroke="white" stroke-width="2" stroke-linecap="round" stroke-linejoin="round"/>
</svg>
