<svg width="48" height="48" viewBox="0 0 48 48" fill="none" xmlns="http://www.w3.org/2000/svg">
<path d="M21.5 1.44338C23.047 0.550211 24.953 0.550212 26.5 1.44338L42.2846 10.5566C43.8316 11.4498 44.7846 13.1004 44.7846 14.8868V33.1133C44.7846 34.8996 43.8316 36.5502 42.2846 37.4434L26.5 46.5566C24.953 47.4498 23.047 47.4498 21.5 46.5566L5.71539 37.4434C4.16839 36.5502 3.21539 34.8996 3.21539 33.1132V14.8868C3.21539 13.1004 4.16839 11.4498 5.71539 10.5566L21.5 1.44338Z" fill="#4A2F0B"/>
<path d="M15 19V17C15 16.4696 15.2107 15.9609 15.5858 15.5858C15.9609 15.2107 16.4696 15 17 15H19" stroke="white" stroke-width="2" stroke-linecap="round" stroke-linejoin="round"/>
<path d="M29 15H31C31.5304 15 32.0391 15.2107 32.4142 15.5858C32.7893 15.9609 33 16.4696 33 17V19" stroke="white" stroke-width="2" stroke-linecap="round" stroke-linejoin="round"/>
<path d="M33 29V31C33 31.5304 32.7893 32.0391 32.4142 32.4142C32.0391 32.7893 31.5304 33 31 33H29" stroke="white" stroke-width="2" stroke-linecap="round" stroke-linejoin="round"/>
<path d="M19 33H17C16.4696 33 15.9609 32.7893 15.5858 32.4142C15.2107 32.0391 15 31.5304 15 31V29" stroke="white" stroke-width="2" stroke-linecap="round" stroke-linejoin="round"/>
</svg>
