<svg width="48" height="48" viewBox="0 0 48 48" fill="none" xmlns="http://www.w3.org/2000/svg">
<path d="M21 1.73205C22.8564 0.660254 25.1436 0.660254 27 1.73205L41.7846 10.2679C43.641 11.3397 44.7846 13.3205 44.7846 15.4641V32.5359C44.7846 34.6795 43.641 36.6603 41.7846 37.7321L27 46.2679C25.1436 47.3397 22.8564 47.3397 21 46.2679L6.21539 37.7321C4.35899 36.6603 3.21539 34.6795 3.21539 32.5359V15.4641C3.21539 13.3205 4.35898 11.3397 6.21539 10.2679L21 1.73205Z" fill="#4A2F0B"/>
<path d="M23.5248 14.2417C23.5687 14.1531 23.6364 14.0786 23.7203 14.0265C23.8042 13.9744 23.9011 13.9468 23.9998 13.9468C24.0986 13.9468 24.1955 13.9744 24.2794 14.0265C24.3633 14.0786 24.431 14.1531 24.4748 14.2417L26.7848 18.9207C26.937 19.2286 27.1617 19.4951 27.4395 19.6971C27.7173 19.8992 28.04 20.0308 28.3798 20.0807L33.5458 20.8367C33.6437 20.8509 33.7357 20.8921 33.8113 20.9559C33.887 21.0196 33.9433 21.1032 33.9739 21.1973C34.0045 21.2913 34.0081 21.3921 33.9844 21.4881C33.9607 21.5841 33.9107 21.6716 33.8398 21.7407L30.1038 25.3787C29.8575 25.6188 29.6731 25.9152 29.5667 26.2423C29.4602 26.5694 29.4349 26.9176 29.4928 27.2567L30.3748 32.3967C30.3921 32.4945 30.3816 32.5952 30.3443 32.6874C30.3071 32.7795 30.2448 32.8593 30.1644 32.9177C30.084 32.9761 29.9888 33.0107 29.8897 33.0176C29.7906 33.0245 29.6915 33.0034 29.6038 32.9567L24.9858 30.5287C24.6816 30.3689 24.343 30.2854 23.9993 30.2854C23.6557 30.2854 23.3171 30.3689 23.0128 30.5287L18.3958 32.9567C18.3082 33.0031 18.2092 33.024 18.1103 33.0169C18.0114 33.0099 17.9164 32.9752 17.8361 32.9169C17.7559 32.8585 17.6937 32.7789 17.6565 32.6869C17.6193 32.5949 17.6087 32.4944 17.6258 32.3967L18.5068 27.2577C18.565 26.9184 18.5398 26.5701 18.4334 26.2427C18.3269 25.9154 18.1425 25.6188 17.8958 25.3787L14.1598 21.7417C14.0884 21.6727 14.0378 21.5851 14.0138 21.4887C13.9898 21.3924 13.9933 21.2913 14.0239 21.1969C14.0546 21.1024 14.1111 21.0185 14.1871 20.9547C14.2631 20.8908 14.3556 20.8496 14.4538 20.8357L19.6188 20.0807C19.9591 20.0312 20.2822 19.8997 20.5604 19.6977C20.8386 19.4956 21.0636 19.2289 21.2158 18.9207L23.5248 14.2417Z" stroke="white" stroke-width="2" stroke-linecap="round" stroke-linejoin="round"/>
</svg>
