<svg width="48" height="48" viewBox="0 0 48 48" fill="none" xmlns="http://www.w3.org/2000/svg">
<path d="M21 1.61242C22.8564 0.540625 25.1436 0.540625 27 1.61242L41.7846 10.1483C43.641 11.2201 44.7846 13.2009 44.7846 15.3445V32.4163C44.7846 34.5599 43.641 36.5406 41.7846 37.6124L27 46.1483C25.1436 47.2201 22.8564 47.2201 21 46.1483L6.21539 37.6124C4.35899 36.5406 3.21539 34.5599 3.21539 32.4163V15.3445C3.21539 13.2009 4.35898 11.2201 6.21539 10.1483L21 1.61242Z" fill="#4A2F0B"/>
<path d="M24 34C29.5228 34 34 29.5228 34 24C34 18.4772 29.5228 14 24 14C18.4772 14 14 18.4772 14 24C14 29.5228 18.4772 34 24 34Z" stroke="white" stroke-width="2" stroke-linecap="round" stroke-linejoin="round"/>
<path d="M24 18V24L28 26" stroke="white" stroke-width="2" stroke-linecap="round" stroke-linejoin="round"/>
</svg>
