<svg width="48" height="48" viewBox="0 0 48 48" fill="none" xmlns="http://www.w3.org/2000/svg">
<path d="M21 1.73205C22.8564 0.660254 25.1436 0.660254 27 1.73205L41.7846 10.2679C43.641 11.3397 44.7846 13.3205 44.7846 15.4641V32.5359C44.7846 34.6795 43.641 36.6603 41.7846 37.7321L27 46.2679C25.1436 47.3397 22.8564 47.3397 21 46.2679L6.21539 37.7321C4.35899 36.6603 3.21539 34.6795 3.21539 32.5359V15.4641C3.21539 13.3205 4.35898 11.3397 6.21539 10.2679L21 1.73205Z" fill="#4A2F0B"/>
<path d="M33.7304 28.0002L25.7304 14.0002C25.556 13.6924 25.303 13.4364 24.9973 13.2583C24.6917 13.0802 24.3442 12.9863 23.9904 12.9863C23.6366 12.9863 23.2892 13.0802 22.9835 13.2583C22.6778 13.4364 22.4249 13.6924 22.2504 14.0002L14.2504 28.0002C14.0741 28.3056 13.9816 28.6521 13.9824 29.0047C13.9832 29.3573 14.0772 29.7035 14.2549 30.008C14.4325 30.3126 14.6876 30.5648 14.9941 30.7391C15.3007 30.9133 15.6478 31.0034 16.0004 31.0002H32.0004C32.3513 30.9999 32.6959 30.9072 32.9997 30.7315C33.3035 30.5558 33.5556 30.3033 33.7309 29.9993C33.9062 29.6954 33.9985 29.3506 33.9984 28.9997C33.9983 28.6488 33.9059 28.3041 33.7304 28.0002Z" stroke="white" stroke-width="2" stroke-linecap="round" stroke-linejoin="round"/>
<path d="M24 19V23" stroke="white" stroke-width="2" stroke-linecap="round" stroke-linejoin="round"/>
<path d="M24 27H24.01" stroke="white" stroke-width="2" stroke-linecap="round" stroke-linejoin="round"/>
</svg>
